<?xml version="1.0" encoding="utf-8" standalone="no"?>
<!DOCTYPE svg PUBLIC "-//W3C//DTD SVG 1.1//EN"
  "http://www.w3.org/Graphics/SVG/1.1/DTD/svg11.dtd">
<svg xmlns:xlink="http://www.w3.org/1999/xlink" width="1073.090575pt" height="568.272187pt" viewBox="0 0 1073.090575 568.272187" xmlns="http://www.w3.org/2000/svg" version="1.1">
 <metadata>
  <rdf:RDF xmlns:dc="http://purl.org/dc/elements/1.1/" xmlns:cc="http://creativecommons.org/ns#" xmlns:rdf="http://www.w3.org/1999/02/22-rdf-syntax-ns#">
   <cc:Work>
    <dc:type rdf:resource="http://purl.org/dc/dcmitype/StillImage"/>
    <dc:date>2025-05-26T20:04:52.863286</dc:date>
    <dc:format>image/svg+xml</dc:format>
    <dc:creator>
     <cc:Agent>
      <dc:title>Matplotlib v3.8.0, https://matplotlib.org/</dc:title>
     </cc:Agent>
    </dc:creator>
   </cc:Work>
  </rdf:RDF>
 </metadata>
 <defs>
  <style type="text/css">*{stroke-linejoin: round; stroke-linecap: butt}</style>
 </defs>
 <g id="figure_1">
  <g id="patch_1">
   <path d="M 0 568.272187 
L 1073.090575 568.272187 
L 1073.090575 0 
L 0 0 
z
" style="fill: #ffffff"/>
  </g>
  <g id="axes_1">
   <g id="patch_2">
    <path d="M 50.697813 530.49625 
L 929.257812 530.49625 
L 929.257812 21.89625 
L 50.697813 21.89625 
z
" style="fill: #f8f9fa"/>
   </g>
   <g id="matplotlib.axis_1">
    <g id="xtick_1">
     <g id="line2d_1">
      <path d="M 197.124479 530.49625 
L 197.124479 21.89625 
" clip-path="url(#p54c44ed918)" style="fill: none; stroke: #e9ecef; stroke-opacity: 0.3; stroke-linecap: round"/>
     </g>
     <g id="line2d_2"/>
     <g id="text_1">
      <!-- Job 1 -->
      <g style="fill: #262626" transform="translate(184.89401 544.743125) scale(0.1 -0.1)">
       <defs>
        <path id="LiberationSans-4a" d="M 1428 -63 
Q 894 -63 551 215 
Q 209 494 100 1094 
L 684 1191 
Q 716 988 787 842 
Q 859 697 959 603 
Q 1059 509 1181 465 
Q 1303 422 1431 422 
Q 1756 422 1943 645 
Q 2131 869 2131 1300 
L 2131 3916 
L 1284 3916 
L 1284 4403 
L 2725 4403 
L 2725 1313 
Q 2725 997 2637 744 
Q 2550 491 2383 311 
Q 2216 131 1975 34 
Q 1734 -63 1428 -63 
z
" transform="scale(0.015625)"/>
        <path id="LiberationSans-6f" d="M 3291 1694 
Q 3291 806 2900 371 
Q 2509 -63 1766 -63 
Q 1413 -63 1134 43 
Q 856 150 664 369 
Q 472 588 370 917 
Q 269 1247 269 1694 
Q 269 3444 1784 3444 
Q 2178 3444 2464 3334 
Q 2750 3225 2933 3006 
Q 3116 2788 3203 2459 
Q 3291 2131 3291 1694 
z
M 2700 1694 
Q 2700 2088 2639 2344 
Q 2578 2600 2461 2753 
Q 2344 2906 2175 2967 
Q 2006 3028 1794 3028 
Q 1578 3028 1404 2964 
Q 1231 2900 1109 2745 
Q 988 2591 923 2334 
Q 859 2078 859 1694 
Q 859 1300 928 1042 
Q 997 784 1117 631 
Q 1238 478 1402 415 
Q 1566 353 1759 353 
Q 1975 353 2150 414 
Q 2325 475 2447 628 
Q 2569 781 2634 1040 
Q 2700 1300 2700 1694 
z
" transform="scale(0.015625)"/>
        <path id="LiberationSans-62" d="M 3291 1706 
Q 3291 -63 2047 -63 
Q 1663 -63 1408 76 
Q 1153 216 994 525 
L 988 525 
Q 988 444 983 356 
Q 978 269 973 194 
Q 969 119 964 66 
Q 959 13 956 0 
L 413 0 
Q 416 28 419 95 
Q 422 163 425 256 
Q 428 350 429 462 
Q 431 575 431 697 
L 431 4638 
L 994 4638 
L 994 3316 
Q 994 3222 992 3136 
Q 991 3050 988 2984 
Q 984 2906 981 2838 
L 994 2838 
Q 1150 3163 1408 3303 
Q 1666 3444 2047 3444 
Q 2688 3444 2989 3012 
Q 3291 2581 3291 1706 
z
M 2700 1688 
Q 2700 2038 2656 2288 
Q 2613 2538 2516 2698 
Q 2419 2859 2269 2934 
Q 2119 3009 1903 3009 
Q 1681 3009 1511 2937 
Q 1341 2866 1227 2706 
Q 1113 2547 1053 2287 
Q 994 2028 994 1653 
Q 994 1291 1053 1044 
Q 1113 797 1227 642 
Q 1341 488 1509 420 
Q 1678 353 1897 353 
Q 2103 353 2253 425 
Q 2403 497 2503 656 
Q 2603 816 2651 1070 
Q 2700 1325 2700 1688 
z
" transform="scale(0.015625)"/>
        <path id="LiberationSans-20" transform="scale(0.015625)"/>
        <path id="LiberationSans-31" d="M 488 0 
L 488 478 
L 1609 478 
L 1609 3866 
L 616 3156 
L 616 3688 
L 1656 4403 
L 2175 4403 
L 2175 478 
L 3247 478 
L 3247 0 
L 488 0 
z
" transform="scale(0.015625)"/>
       </defs>
       <use xlink:href="#LiberationSans-4a"/>
       <use xlink:href="#LiberationSans-6f" x="50"/>
       <use xlink:href="#LiberationSans-62" x="105.615234"/>
       <use xlink:href="#LiberationSans-20" x="161.230469"/>
       <use xlink:href="#LiberationSans-31" x="189.013672"/>
      </g>
     </g>
    </g>
    <g id="xtick_2">
     <g id="line2d_3">
      <path d="M 489.977812 530.49625 
L 489.977812 21.89625 
" clip-path="url(#p54c44ed918)" style="fill: none; stroke: #e9ecef; stroke-opacity: 0.3; stroke-linecap: round"/>
     </g>
     <g id="line2d_4"/>
     <g id="text_2">
      <!-- Job 2 -->
      <g style="fill: #262626" transform="translate(477.747344 544.743125) scale(0.1 -0.1)">
       <defs>
        <path id="LiberationSans-32" d="M 322 0 
L 322 397 
Q 481 763 711 1042 
Q 941 1322 1194 1548 
Q 1447 1775 1695 1969 
Q 1944 2163 2144 2356 
Q 2344 2550 2467 2762 
Q 2591 2975 2591 3244 
Q 2591 3431 2534 3573 
Q 2478 3716 2372 3812 
Q 2266 3909 2117 3957 
Q 1969 4006 1788 4006 
Q 1619 4006 1470 3959 
Q 1322 3913 1206 3819 
Q 1091 3725 1017 3586 
Q 944 3447 922 3263 
L 347 3316 
Q 375 3553 478 3762 
Q 581 3972 762 4130 
Q 944 4288 1198 4378 
Q 1453 4469 1788 4469 
Q 2116 4469 2372 4391 
Q 2628 4313 2804 4159 
Q 2981 4006 3075 3781 
Q 3169 3556 3169 3263 
Q 3169 3041 3089 2841 
Q 3009 2641 2876 2459 
Q 2744 2278 2569 2109 
Q 2394 1941 2203 1780 
Q 2013 1619 1819 1461 
Q 1625 1303 1454 1143 
Q 1284 984 1150 820 
Q 1016 656 941 478 
L 3238 478 
L 3238 0 
L 322 0 
z
" transform="scale(0.015625)"/>
       </defs>
       <use xlink:href="#LiberationSans-4a"/>
       <use xlink:href="#LiberationSans-6f" x="50"/>
       <use xlink:href="#LiberationSans-62" x="105.615234"/>
       <use xlink:href="#LiberationSans-20" x="161.230469"/>
       <use xlink:href="#LiberationSans-32" x="189.013672"/>
      </g>
     </g>
    </g>
    <g id="xtick_3">
     <g id="line2d_5">
      <path d="M 782.831146 530.49625 
L 782.831146 21.89625 
" clip-path="url(#p54c44ed918)" style="fill: none; stroke: #e9ecef; stroke-opacity: 0.3; stroke-linecap: round"/>
     </g>
     <g id="line2d_6"/>
     <g id="text_3">
      <!-- Job 3 -->
      <g style="fill: #262626" transform="translate(770.600677 544.743125) scale(0.1 -0.1)">
       <defs>
        <path id="LiberationSans-33" d="M 3278 1216 
Q 3278 913 3179 675 
Q 3081 438 2892 273 
Q 2703 109 2423 23 
Q 2144 -63 1784 -63 
Q 1375 -63 1095 39 
Q 816 141 634 308 
Q 453 475 362 689 
Q 272 903 244 1131 
L 825 1184 
Q 850 1009 917 865 
Q 984 722 1100 619 
Q 1216 516 1384 459 
Q 1553 403 1784 403 
Q 2209 403 2451 612 
Q 2694 822 2694 1234 
Q 2694 1478 2586 1626 
Q 2478 1775 2317 1858 
Q 2156 1941 1967 1969 
Q 1778 1997 1619 1997 
L 1300 1997 
L 1300 2484 
L 1606 2484 
Q 1766 2484 1937 2517 
Q 2109 2550 2251 2636 
Q 2394 2722 2486 2869 
Q 2578 3016 2578 3244 
Q 2578 3597 2370 3801 
Q 2163 4006 1753 4006 
Q 1381 4006 1151 3815 
Q 922 3625 884 3278 
L 319 3322 
Q 353 3613 478 3828 
Q 603 4044 795 4186 
Q 988 4328 1234 4398 
Q 1481 4469 1759 4469 
Q 2128 4469 2393 4376 
Q 2659 4284 2828 4126 
Q 2997 3969 3076 3756 
Q 3156 3544 3156 3303 
Q 3156 3109 3103 2940 
Q 3050 2772 2937 2637 
Q 2825 2503 2651 2406 
Q 2478 2309 2234 2259 
L 2234 2247 
Q 2500 2219 2697 2126 
Q 2894 2034 3022 1896 
Q 3150 1759 3214 1584 
Q 3278 1409 3278 1216 
z
" transform="scale(0.015625)"/>
       </defs>
       <use xlink:href="#LiberationSans-4a"/>
       <use xlink:href="#LiberationSans-6f" x="50"/>
       <use xlink:href="#LiberationSans-62" x="105.615234"/>
       <use xlink:href="#LiberationSans-20" x="161.230469"/>
       <use xlink:href="#LiberationSans-33" x="189.013672"/>
      </g>
     </g>
    </g>
    <g id="text_4">
     <!-- Jobs -->
     <g style="fill: #262626" transform="translate(478.360781 558.789688) scale(0.11 -0.11)">
      <defs>
       <path id="LiberationSans-73" d="M 2969 934 
Q 2969 697 2876 511 
Q 2784 325 2609 198 
Q 2434 72 2179 4 
Q 1925 -63 1597 -63 
Q 1303 -63 1067 -17 
Q 831 28 653 128 
Q 475 228 354 392 
Q 234 556 178 794 
L 675 891 
Q 747 619 972 492 
Q 1197 366 1597 366 
Q 1778 366 1929 391 
Q 2081 416 2190 477 
Q 2300 538 2361 639 
Q 2422 741 2422 891 
Q 2422 1044 2350 1142 
Q 2278 1241 2150 1306 
Q 2022 1372 1839 1420 
Q 1656 1469 1438 1528 
Q 1234 1581 1034 1647 
Q 834 1713 673 1820 
Q 513 1928 413 2087 
Q 313 2247 313 2488 
Q 313 2950 642 3192 
Q 972 3434 1603 3434 
Q 2163 3434 2492 3237 
Q 2822 3041 2909 2606 
L 2403 2544 
Q 2375 2675 2300 2764 
Q 2225 2853 2119 2908 
Q 2013 2963 1880 2986 
Q 1747 3009 1603 3009 
Q 1222 3009 1040 2893 
Q 859 2778 859 2544 
Q 859 2406 926 2317 
Q 994 2228 1114 2167 
Q 1234 2106 1403 2061 
Q 1572 2016 1775 1966 
Q 1909 1931 2050 1892 
Q 2191 1853 2323 1798 
Q 2456 1744 2573 1670 
Q 2691 1597 2778 1494 
Q 2866 1391 2917 1253 
Q 2969 1116 2969 934 
z
" transform="scale(0.015625)"/>
      </defs>
      <use xlink:href="#LiberationSans-4a"/>
      <use xlink:href="#LiberationSans-6f" x="50"/>
      <use xlink:href="#LiberationSans-62" x="105.615234"/>
      <use xlink:href="#LiberationSans-73" x="161.230469"/>
     </g>
    </g>
   </g>
   <g id="matplotlib.axis_2">
    <g id="ytick_1">
     <g id="line2d_7">
      <path d="M 50.697813 530.49625 
L 929.257812 530.49625 
" clip-path="url(#p54c44ed918)" style="fill: none; stroke: #e9ecef; stroke-opacity: 0.3; stroke-linecap: round"/>
     </g>
     <g id="line2d_8"/>
     <g id="text_5">
      <!-- 0 -->
      <g style="fill: #262626" transform="translate(38.136875 534.119687) scale(0.1 -0.1)">
       <defs>
        <path id="LiberationSans-30" d="M 3309 2203 
Q 3309 1569 3189 1136 
Q 3069 703 2861 436 
Q 2653 169 2372 53 
Q 2091 -63 1772 -63 
Q 1450 -63 1172 53 
Q 894 169 689 434 
Q 484 700 367 1133 
Q 250 1566 250 2203 
Q 250 2869 367 3305 
Q 484 3741 690 4000 
Q 897 4259 1178 4364 
Q 1459 4469 1791 4469 
Q 2106 4469 2382 4364 
Q 2659 4259 2865 4000 
Q 3072 3741 3190 3305 
Q 3309 2869 3309 2203 
z
M 2738 2203 
Q 2738 2728 2675 3076 
Q 2613 3425 2491 3633 
Q 2369 3841 2192 3927 
Q 2016 4013 1791 4013 
Q 1553 4013 1372 3925 
Q 1191 3838 1067 3630 
Q 944 3422 881 3073 
Q 819 2725 819 2203 
Q 819 1697 883 1350 
Q 947 1003 1070 792 
Q 1194 581 1372 489 
Q 1550 397 1778 397 
Q 2000 397 2178 489 
Q 2356 581 2479 792 
Q 2603 1003 2670 1350 
Q 2738 1697 2738 2203 
z
" transform="scale(0.015625)"/>
       </defs>
       <use xlink:href="#LiberationSans-30"/>
      </g>
     </g>
    </g>
    <g id="ytick_2">
     <g id="line2d_9">
      <path d="M 50.697813 471.367716 
L 929.257812 471.367716 
" clip-path="url(#p54c44ed918)" style="fill: none; stroke: #e9ecef; stroke-opacity: 0.3; stroke-linecap: round"/>
     </g>
     <g id="line2d_10"/>
     <g id="text_6">
      <!-- 250 -->
      <g style="fill: #262626" transform="translate(27.015 474.991153) scale(0.1 -0.1)">
       <defs>
        <path id="LiberationSans-35" d="M 3291 1434 
Q 3291 1103 3191 828 
Q 3091 553 2894 354 
Q 2697 156 2405 46 
Q 2113 -63 1728 -63 
Q 1381 -63 1123 18 
Q 866 100 687 242 
Q 509 384 404 575 
Q 300 766 256 984 
L 825 1050 
Q 859 925 921 808 
Q 984 691 1092 598 
Q 1200 506 1358 451 
Q 1516 397 1741 397 
Q 1959 397 2137 464 
Q 2316 531 2442 662 
Q 2569 794 2637 984 
Q 2706 1175 2706 1422 
Q 2706 1625 2640 1795 
Q 2575 1966 2453 2089 
Q 2331 2213 2154 2281 
Q 1978 2350 1753 2350 
Q 1613 2350 1494 2325 
Q 1375 2300 1273 2256 
Q 1172 2213 1089 2155 
Q 1006 2097 934 2034 
L 384 2034 
L 531 4403 
L 3034 4403 
L 3034 3925 
L 1044 3925 
L 959 2528 
Q 1109 2644 1334 2726 
Q 1559 2809 1869 2809 
Q 2197 2809 2459 2709 
Q 2722 2609 2906 2426 
Q 3091 2244 3191 1991 
Q 3291 1738 3291 1434 
z
" transform="scale(0.015625)"/>
       </defs>
       <use xlink:href="#LiberationSans-32"/>
       <use xlink:href="#LiberationSans-35" x="55.615234"/>
       <use xlink:href="#LiberationSans-30" x="111.230469"/>
      </g>
     </g>
    </g>
    <g id="ytick_3">
     <g id="line2d_11">
      <path d="M 50.697813 412.239182 
L 929.257812 412.239182 
" clip-path="url(#p54c44ed918)" style="fill: none; stroke: #e9ecef; stroke-opacity: 0.3; stroke-linecap: round"/>
     </g>
     <g id="line2d_12"/>
     <g id="text_7">
      <!-- 500 -->
      <g style="fill: #262626" transform="translate(27.015 415.862619) scale(0.1 -0.1)">
       <use xlink:href="#LiberationSans-35"/>
       <use xlink:href="#LiberationSans-30" x="55.615234"/>
       <use xlink:href="#LiberationSans-30" x="111.230469"/>
      </g>
     </g>
    </g>
    <g id="ytick_4">
     <g id="line2d_13">
      <path d="M 50.697813 353.110647 
L 929.257812 353.110647 
" clip-path="url(#p54c44ed918)" style="fill: none; stroke: #e9ecef; stroke-opacity: 0.3; stroke-linecap: round"/>
     </g>
     <g id="line2d_14"/>
     <g id="text_8">
      <!-- 750 -->
      <g style="fill: #262626" transform="translate(27.015 356.734085) scale(0.1 -0.1)">
       <defs>
        <path id="LiberationSans-37" d="M 3238 3947 
Q 2906 3441 2628 2973 
Q 2350 2506 2150 2032 
Q 1950 1559 1839 1061 
Q 1728 563 1728 0 
L 1141 0 
Q 1141 528 1266 1036 
Q 1391 1544 1603 2033 
Q 1816 2522 2097 2994 
Q 2378 3466 2694 3925 
L 328 3925 
L 328 4403 
L 3238 4403 
L 3238 3947 
z
" transform="scale(0.015625)"/>
       </defs>
       <use xlink:href="#LiberationSans-37"/>
       <use xlink:href="#LiberationSans-35" x="55.615234"/>
       <use xlink:href="#LiberationSans-30" x="111.230469"/>
      </g>
     </g>
    </g>
    <g id="ytick_5">
     <g id="line2d_15">
      <path d="M 50.697813 293.982113 
L 929.257812 293.982113 
" clip-path="url(#p54c44ed918)" style="fill: none; stroke: #e9ecef; stroke-opacity: 0.3; stroke-linecap: round"/>
     </g>
     <g id="line2d_16"/>
     <g id="text_9">
      <!-- 1000 -->
      <g style="fill: #262626" transform="translate(21.454063 297.605551) scale(0.1 -0.1)">
       <use xlink:href="#LiberationSans-31"/>
       <use xlink:href="#LiberationSans-30" x="55.615234"/>
       <use xlink:href="#LiberationSans-30" x="111.230469"/>
       <use xlink:href="#LiberationSans-30" x="166.845703"/>
      </g>
     </g>
    </g>
    <g id="ytick_6">
     <g id="line2d_17">
      <path d="M 50.697813 234.853579 
L 929.257812 234.853579 
" clip-path="url(#p54c44ed918)" style="fill: none; stroke: #e9ecef; stroke-opacity: 0.3; stroke-linecap: round"/>
     </g>
     <g id="line2d_18"/>
     <g id="text_10">
      <!-- 1250 -->
      <g style="fill: #262626" transform="translate(21.454063 238.477016) scale(0.1 -0.1)">
       <use xlink:href="#LiberationSans-31"/>
       <use xlink:href="#LiberationSans-32" x="55.615234"/>
       <use xlink:href="#LiberationSans-35" x="111.230469"/>
       <use xlink:href="#LiberationSans-30" x="166.845703"/>
      </g>
     </g>
    </g>
    <g id="ytick_7">
     <g id="line2d_19">
      <path d="M 50.697813 175.725045 
L 929.257812 175.725045 
" clip-path="url(#p54c44ed918)" style="fill: none; stroke: #e9ecef; stroke-opacity: 0.3; stroke-linecap: round"/>
     </g>
     <g id="line2d_20"/>
     <g id="text_11">
      <!-- 1500 -->
      <g style="fill: #262626" transform="translate(21.454063 179.348482) scale(0.1 -0.1)">
       <use xlink:href="#LiberationSans-31"/>
       <use xlink:href="#LiberationSans-35" x="55.615234"/>
       <use xlink:href="#LiberationSans-30" x="111.230469"/>
       <use xlink:href="#LiberationSans-30" x="166.845703"/>
      </g>
     </g>
    </g>
    <g id="ytick_8">
     <g id="line2d_21">
      <path d="M 50.697813 116.59651 
L 929.257812 116.59651 
" clip-path="url(#p54c44ed918)" style="fill: none; stroke: #e9ecef; stroke-opacity: 0.3; stroke-linecap: round"/>
     </g>
     <g id="line2d_22"/>
     <g id="text_12">
      <!-- 1750 -->
      <g style="fill: #262626" transform="translate(21.454063 120.219948) scale(0.1 -0.1)">
       <use xlink:href="#LiberationSans-31"/>
       <use xlink:href="#LiberationSans-37" x="55.615234"/>
       <use xlink:href="#LiberationSans-35" x="111.230469"/>
       <use xlink:href="#LiberationSans-30" x="166.845703"/>
      </g>
     </g>
    </g>
    <g id="ytick_9">
     <g id="line2d_23">
      <path d="M 50.697813 57.467976 
L 929.257812 57.467976 
" clip-path="url(#p54c44ed918)" style="fill: none; stroke: #e9ecef; stroke-opacity: 0.3; stroke-linecap: round"/>
     </g>
     <g id="line2d_24"/>
     <g id="text_13">
      <!-- 2000 -->
      <g style="fill: #262626" transform="translate(21.454063 61.091414) scale(0.1 -0.1)">
       <use xlink:href="#LiberationSans-32"/>
       <use xlink:href="#LiberationSans-30" x="55.615234"/>
       <use xlink:href="#LiberationSans-30" x="111.230469"/>
       <use xlink:href="#LiberationSans-30" x="166.845703"/>
      </g>
     </g>
    </g>
    <g id="text_14">
     <!-- Number of Shots -->
     <g style="fill: #262626" transform="translate(15.171563 317.462578) rotate(-90) scale(0.11 -0.11)">
      <defs>
       <path id="LiberationSans-4e" d="M 3381 0 
L 1025 3750 
Q 1031 3597 1041 3447 
Q 1047 3319 1051 3176 
Q 1056 3034 1056 2925 
L 1056 0 
L 525 0 
L 525 4403 
L 1219 4403 
L 3600 628 
Q 3591 781 3581 934 
Q 3575 1066 3569 1220 
Q 3563 1375 3563 1516 
L 3563 4403 
L 4100 4403 
L 4100 0 
L 3381 0 
z
" transform="scale(0.015625)"/>
       <path id="LiberationSans-75" d="M 981 3381 
L 981 1238 
Q 981 991 1017 825 
Q 1053 659 1134 557 
Q 1216 456 1348 414 
Q 1481 372 1678 372 
Q 1878 372 2039 442 
Q 2200 513 2314 645 
Q 2428 778 2490 973 
Q 2553 1169 2553 1422 
L 2553 3381 
L 3116 3381 
L 3116 722 
Q 3116 616 3117 498 
Q 3119 381 3122 276 
Q 3125 172 3128 97 
Q 3131 22 3134 0 
L 2603 0 
Q 2600 16 2597 84 
Q 2594 153 2589 242 
Q 2584 331 2581 423 
Q 2578 516 2578 578 
L 2569 578 
Q 2488 431 2391 312 
Q 2294 194 2166 111 
Q 2038 28 1872 -17 
Q 1706 -63 1488 -63 
Q 1206 -63 1003 6 
Q 800 75 669 219 
Q 538 363 477 588 
Q 416 813 416 1128 
L 416 3381 
L 981 3381 
z
" transform="scale(0.015625)"/>
       <path id="LiberationSans-6d" d="M 2400 0 
L 2400 2144 
Q 2400 2391 2369 2556 
Q 2338 2722 2264 2823 
Q 2191 2925 2072 2967 
Q 1953 3009 1781 3009 
Q 1603 3009 1459 2939 
Q 1316 2869 1214 2736 
Q 1113 2603 1058 2408 
Q 1003 2213 1003 1959 
L 1003 0 
L 444 0 
L 444 2659 
Q 444 2766 442 2883 
Q 441 3000 437 3104 
Q 434 3209 431 3284 
Q 428 3359 425 3381 
L 956 3381 
Q 959 3366 962 3297 
Q 966 3228 970 3139 
Q 975 3050 978 2958 
Q 981 2866 981 2803 
L 991 2803 
Q 1066 2950 1153 3069 
Q 1241 3188 1358 3270 
Q 1475 3353 1626 3398 
Q 1778 3444 1978 3444 
Q 2363 3444 2586 3291 
Q 2809 3138 2897 2803 
L 2906 2803 
Q 2981 2950 3075 3069 
Q 3169 3188 3294 3270 
Q 3419 3353 3575 3398 
Q 3731 3444 3931 3444 
Q 4188 3444 4373 3375 
Q 4559 3306 4678 3162 
Q 4797 3019 4853 2792 
Q 4909 2566 4909 2253 
L 4909 0 
L 4353 0 
L 4353 2144 
Q 4353 2391 4322 2556 
Q 4291 2722 4217 2823 
Q 4144 2925 4025 2967 
Q 3906 3009 3734 3009 
Q 3556 3009 3412 2942 
Q 3269 2875 3167 2744 
Q 3066 2613 3011 2416 
Q 2956 2219 2956 1959 
L 2956 0 
L 2400 0 
z
" transform="scale(0.015625)"/>
       <path id="LiberationSans-65" d="M 863 1572 
Q 863 1306 917 1082 
Q 972 859 1086 698 
Q 1200 538 1378 448 
Q 1556 359 1806 359 
Q 2172 359 2392 506 
Q 2613 653 2691 878 
L 3184 738 
Q 3131 597 3036 455 
Q 2941 313 2781 198 
Q 2622 84 2383 10 
Q 2144 -63 1806 -63 
Q 1056 -63 664 384 
Q 272 831 272 1713 
Q 272 2188 390 2517 
Q 509 2847 715 3053 
Q 922 3259 1197 3351 
Q 1472 3444 1784 3444 
Q 2209 3444 2495 3306 
Q 2781 3169 2954 2926 
Q 3128 2684 3201 2356 
Q 3275 2028 3275 1647 
L 3275 1572 
L 863 1572 
z
M 2694 2003 
Q 2647 2538 2422 2783 
Q 2197 3028 1775 3028 
Q 1634 3028 1479 2983 
Q 1325 2938 1194 2822 
Q 1063 2706 972 2507 
Q 881 2309 869 2003 
L 2694 2003 
z
" transform="scale(0.015625)"/>
       <path id="LiberationSans-72" d="M 444 0 
L 444 2594 
Q 444 2700 442 2811 
Q 441 2922 437 3025 
Q 434 3128 431 3218 
Q 428 3309 425 3381 
L 956 3381 
Q 959 3309 964 3217 
Q 969 3125 973 3028 
Q 978 2931 979 2842 
Q 981 2753 981 2691 
L 994 2691 
Q 1053 2884 1120 3026 
Q 1188 3169 1278 3261 
Q 1369 3353 1494 3398 
Q 1619 3444 1797 3444 
Q 1866 3444 1928 3433 
Q 1991 3422 2025 3413 
L 2025 2897 
Q 1969 2913 1894 2920 
Q 1819 2928 1725 2928 
Q 1531 2928 1395 2840 
Q 1259 2753 1173 2598 
Q 1088 2444 1047 2230 
Q 1006 2016 1006 1763 
L 1006 0 
L 444 0 
z
" transform="scale(0.015625)"/>
       <path id="LiberationSans-66" d="M 1128 2972 
L 1128 0 
L 566 0 
L 566 2972 
L 91 2972 
L 91 3381 
L 566 3381 
L 566 3763 
Q 566 3947 600 4105 
Q 634 4263 726 4380 
Q 819 4497 978 4564 
Q 1138 4631 1391 4631 
Q 1491 4631 1598 4622 
Q 1706 4613 1788 4594 
L 1788 4166 
Q 1734 4175 1664 4183 
Q 1594 4191 1538 4191 
Q 1413 4191 1333 4156 
Q 1253 4122 1208 4058 
Q 1163 3994 1145 3900 
Q 1128 3806 1128 3684 
L 1128 3381 
L 1788 3381 
L 1788 2972 
L 1128 2972 
z
" transform="scale(0.015625)"/>
       <path id="LiberationSans-53" d="M 3975 1216 
Q 3975 938 3867 703 
Q 3759 469 3534 298 
Q 3309 128 2967 32 
Q 2625 -63 2156 -63 
Q 1334 -63 875 225 
Q 416 513 291 1056 
L 869 1172 
Q 913 1000 1003 859 
Q 1094 719 1248 617 
Q 1403 516 1631 459 
Q 1859 403 2178 403 
Q 2444 403 2666 448 
Q 2888 494 3047 587 
Q 3206 681 3295 829 
Q 3384 978 3384 1184 
Q 3384 1400 3286 1534 
Q 3188 1669 3009 1756 
Q 2831 1844 2584 1903 
Q 2338 1963 2038 2031 
Q 1853 2072 1667 2120 
Q 1481 2169 1311 2236 
Q 1141 2303 991 2393 
Q 841 2484 731 2611 
Q 622 2738 559 2905 
Q 497 3072 497 3291 
Q 497 3603 623 3826 
Q 750 4050 975 4194 
Q 1200 4338 1506 4403 
Q 1813 4469 2169 4469 
Q 2578 4469 2868 4405 
Q 3159 4341 3359 4212 
Q 3559 4084 3679 3895 
Q 3800 3706 3872 3456 
L 3284 3353 
Q 3241 3513 3158 3638 
Q 3075 3763 2940 3847 
Q 2806 3931 2614 3975 
Q 2422 4019 2163 4019 
Q 1856 4019 1648 3964 
Q 1441 3909 1314 3815 
Q 1188 3722 1133 3595 
Q 1078 3469 1078 3322 
Q 1078 3125 1176 2998 
Q 1275 2872 1444 2787 
Q 1613 2703 1834 2647 
Q 2056 2591 2306 2534 
Q 2509 2488 2711 2439 
Q 2913 2391 3097 2323 
Q 3281 2256 3442 2165 
Q 3603 2075 3722 1944 
Q 3841 1813 3908 1634 
Q 3975 1456 3975 1216 
z
" transform="scale(0.015625)"/>
       <path id="LiberationSans-68" d="M 991 2803 
Q 1084 2975 1193 3095 
Q 1303 3216 1434 3294 
Q 1566 3372 1722 3408 
Q 1878 3444 2072 3444 
Q 2397 3444 2605 3356 
Q 2813 3269 2933 3111 
Q 3053 2953 3098 2734 
Q 3144 2516 3144 2253 
L 3144 0 
L 2578 0 
L 2578 2144 
Q 2578 2359 2551 2521 
Q 2525 2684 2450 2792 
Q 2375 2900 2237 2954 
Q 2100 3009 1881 3009 
Q 1681 3009 1520 2937 
Q 1359 2866 1245 2734 
Q 1131 2603 1068 2415 
Q 1006 2228 1006 1994 
L 1006 0 
L 444 0 
L 444 4638 
L 1006 4638 
L 1006 3431 
Q 1006 3328 1003 3225 
Q 1000 3122 995 3034 
Q 991 2947 987 2886 
Q 984 2825 981 2803 
L 991 2803 
z
" transform="scale(0.015625)"/>
       <path id="LiberationSans-74" d="M 1731 25 
Q 1603 -9 1470 -29 
Q 1338 -50 1163 -50 
Q 488 -50 488 716 
L 488 2972 
L 97 2972 
L 97 3381 
L 509 3381 
L 675 4138 
L 1050 4138 
L 1050 3381 
L 1675 3381 
L 1675 2972 
L 1050 2972 
L 1050 838 
Q 1050 594 1129 495 
Q 1209 397 1406 397 
Q 1488 397 1564 409 
Q 1641 422 1731 441 
L 1731 25 
z
" transform="scale(0.015625)"/>
      </defs>
      <use xlink:href="#LiberationSans-4e"/>
      <use xlink:href="#LiberationSans-75" x="72.216797"/>
      <use xlink:href="#LiberationSans-6d" x="127.832031"/>
      <use xlink:href="#LiberationSans-62" x="211.132812"/>
      <use xlink:href="#LiberationSans-65" x="266.748047"/>
      <use xlink:href="#LiberationSans-72" x="322.363281"/>
      <use xlink:href="#LiberationSans-20" x="355.664062"/>
      <use xlink:href="#LiberationSans-6f" x="383.447266"/>
      <use xlink:href="#LiberationSans-66" x="439.0625"/>
      <use xlink:href="#LiberationSans-20" x="466.845703"/>
      <use xlink:href="#LiberationSans-53" x="494.628906"/>
      <use xlink:href="#LiberationSans-68" x="561.328125"/>
      <use xlink:href="#LiberationSans-6f" x="616.943359"/>
      <use xlink:href="#LiberationSans-74" x="672.558594"/>
      <use xlink:href="#LiberationSans-73" x="700.341797"/>
     </g>
    </g>
   </g>
   <g id="patch_3">
    <path d="M 123.911146 530.49625 
L 270.337812 530.49625 
L 270.337812 530.49625 
L 123.911146 530.49625 
z
" clip-path="url(#p54c44ed918)" style="fill: #1f77b4; opacity: 0.7"/>
   </g>
   <g id="patch_4">
    <path d="M 416.764479 530.49625 
L 563.191146 530.49625 
L 563.191146 530.49625 
L 416.764479 530.49625 
z
" clip-path="url(#p54c44ed918)" style="fill: #1f77b4; opacity: 0.7"/>
   </g>
   <g id="patch_5">
    <path d="M 709.617812 530.49625 
L 856.044479 530.49625 
L 856.044479 530.49625 
L 709.617812 530.49625 
z
" clip-path="url(#p54c44ed918)" style="fill: #1f77b4; opacity: 0.7"/>
   </g>
   <g id="patch_6">
    <path d="M 123.911146 530.49625 
L 270.337812 530.49625 
L 270.337812 288.305774 
L 123.911146 288.305774 
z
" clip-path="url(#p54c44ed918)" style="fill: #ff7f0e; opacity: 0.7"/>
   </g>
   <g id="patch_7">
    <path d="M 416.764479 530.49625 
L 563.191146 530.49625 
L 563.191146 46.115298 
L 416.764479 46.115298 
z
" clip-path="url(#p54c44ed918)" style="fill: #ff7f0e; opacity: 0.7"/>
   </g>
   <g id="patch_8">
    <path d="M 709.617812 530.49625 
L 856.044479 530.49625 
L 856.044479 409.401012 
L 709.617812 409.401012 
z
" clip-path="url(#p54c44ed918)" style="fill: #ff7f0e; opacity: 0.7"/>
   </g>
   <g id="patch_9">
    <path d="M 50.697813 530.49625 
L 50.697813 21.89625 
" style="fill: none"/>
   </g>
   <g id="patch_10">
    <path d="M 929.257812 530.49625 
L 929.257812 21.89625 
" style="fill: none"/>
   </g>
   <g id="patch_11">
    <path d="M 50.697812 530.49625 
L 929.257812 530.49625 
" style="fill: none"/>
   </g>
   <g id="patch_12">
    <path d="M 50.697812 21.89625 
L 929.257812 21.89625 
" style="fill: none"/>
   </g>
   <g id="text_15">
    <!-- 1024 -->
    <g style="fill: #212529" transform="translate(186.002604 281.386964) scale(0.1 -0.1)">
     <defs>
      <path id="LiberationSans-Bold-31" d="M 403 0 
L 403 653 
L 1494 653 
L 1494 3656 
L 438 2997 
L 438 3688 
L 1541 4403 
L 2372 4403 
L 2372 653 
L 3381 653 
L 3381 0 
L 403 0 
z
" transform="scale(0.015625)"/>
      <path id="LiberationSans-Bold-30" d="M 3297 2203 
Q 3297 1572 3181 1139 
Q 3066 706 2861 439 
Q 2656 172 2376 54 
Q 2097 -63 1766 -63 
Q 1434 -63 1156 53 
Q 878 169 678 436 
Q 478 703 365 1136 
Q 253 1569 253 2203 
Q 253 2869 364 3305 
Q 475 3741 678 4000 
Q 881 4259 1164 4364 
Q 1447 4469 1791 4469 
Q 2113 4469 2389 4364 
Q 2666 4259 2867 4000 
Q 3069 3741 3183 3305 
Q 3297 2869 3297 2203 
z
M 2416 2203 
Q 2416 2669 2381 2973 
Q 2347 3278 2272 3458 
Q 2197 3638 2076 3709 
Q 1956 3781 1784 3781 
Q 1600 3781 1475 3707 
Q 1350 3634 1273 3453 
Q 1197 3272 1164 2967 
Q 1131 2663 1131 2203 
Q 1131 1750 1165 1447 
Q 1200 1144 1275 961 
Q 1350 778 1472 703 
Q 1594 628 1772 628 
Q 1944 628 2066 703 
Q 2188 778 2266 961 
Q 2344 1144 2380 1447 
Q 2416 1750 2416 2203 
z
" transform="scale(0.015625)"/>
      <path id="LiberationSans-Bold-32" d="M 222 0 
L 222 609 
Q 372 938 587 1202 
Q 803 1466 1039 1686 
Q 1275 1906 1508 2095 
Q 1741 2284 1927 2461 
Q 2113 2638 2228 2816 
Q 2344 2994 2344 3194 
Q 2344 3488 2197 3628 
Q 2050 3769 1766 3769 
Q 1484 3769 1336 3617 
Q 1188 3466 1144 3163 
L 259 3213 
Q 291 3472 387 3700 
Q 484 3928 664 4100 
Q 844 4272 1114 4370 
Q 1384 4469 1759 4469 
Q 2116 4469 2391 4386 
Q 2666 4303 2853 4143 
Q 3041 3984 3137 3754 
Q 3234 3525 3234 3231 
Q 3234 2922 3112 2672 
Q 2991 2422 2800 2211 
Q 2609 2000 2376 1815 
Q 2144 1631 1925 1456 
Q 1706 1281 1526 1103 
Q 1347 925 1259 722 
L 3303 722 
L 3303 0 
L 222 0 
z
" transform="scale(0.015625)"/>
      <path id="LiberationSans-Bold-34" d="M 2938 897 
L 2938 0 
L 2100 0 
L 2100 897 
L 97 897 
L 97 1556 
L 1956 4403 
L 2938 4403 
L 2938 1550 
L 3525 1550 
L 3525 897 
L 2938 897 
z
M 2100 2991 
Q 2100 3044 2101 3130 
Q 2103 3216 2108 3306 
Q 2113 3397 2117 3480 
Q 2122 3563 2128 3609 
Q 2113 3575 2078 3511 
Q 2044 3447 2001 3373 
Q 1959 3300 1914 3228 
Q 1869 3156 1834 3103 
L 813 1550 
L 2100 1550 
L 2100 2991 
z
" transform="scale(0.015625)"/>
     </defs>
     <use xlink:href="#LiberationSans-Bold-31"/>
     <use xlink:href="#LiberationSans-Bold-30" x="55.615234"/>
     <use xlink:href="#LiberationSans-Bold-32" x="111.230469"/>
     <use xlink:href="#LiberationSans-Bold-34" x="166.845703"/>
    </g>
   </g>
   <g id="text_16">
    <!-- 1024 -->
    <g style="fill: #ffffff" transform="translate(187.114792 411.728356) scale(0.09 -0.09)">
     <use xlink:href="#LiberationSans-Bold-31"/>
     <use xlink:href="#LiberationSans-Bold-30" x="55.615234"/>
     <use xlink:href="#LiberationSans-Bold-32" x="111.230469"/>
     <use xlink:href="#LiberationSans-Bold-34" x="166.845703"/>
    </g>
   </g>
   <g id="text_17">
    <!-- 2048 -->
    <g style="fill: #212529" transform="translate(478.855937 34.352679) scale(0.1 -0.1)">
     <defs>
      <path id="LiberationSans-Bold-38" d="M 3363 1241 
Q 3363 956 3269 717 
Q 3175 478 2981 304 
Q 2788 131 2491 34 
Q 2194 -63 1784 -63 
Q 1378 -63 1079 34 
Q 781 131 586 304 
Q 391 478 297 715 
Q 203 953 203 1234 
Q 203 1475 278 1661 
Q 353 1847 478 1981 
Q 603 2116 765 2195 
Q 928 2275 1100 2303 
L 1100 2316 
Q 916 2356 769 2450 
Q 622 2544 519 2675 
Q 416 2806 361 2967 
Q 306 3128 306 3303 
Q 306 3566 401 3781 
Q 497 3997 681 4150 
Q 866 4303 1139 4386 
Q 1413 4469 1772 4469 
Q 2156 4469 2436 4383 
Q 2716 4297 2897 4142 
Q 3078 3988 3165 3772 
Q 3253 3556 3253 3297 
Q 3253 3125 3198 2964 
Q 3144 2803 3041 2672 
Q 2938 2541 2789 2450 
Q 2641 2359 2453 2322 
L 2453 2309 
Q 2647 2278 2814 2195 
Q 2981 2113 3103 1980 
Q 3225 1847 3294 1661 
Q 3363 1475 3363 1241 
z
M 2350 3250 
Q 2350 3381 2322 3492 
Q 2294 3603 2228 3683 
Q 2163 3763 2052 3808 
Q 1941 3853 1772 3853 
Q 1609 3853 1500 3808 
Q 1391 3763 1325 3683 
Q 1259 3603 1231 3492 
Q 1203 3381 1203 3250 
Q 1203 3134 1226 3021 
Q 1250 2909 1312 2820 
Q 1375 2731 1487 2675 
Q 1600 2619 1778 2619 
Q 1966 2619 2080 2675 
Q 2194 2731 2253 2822 
Q 2313 2913 2331 3025 
Q 2350 3138 2350 3250 
z
M 2453 1313 
Q 2453 1447 2423 1572 
Q 2394 1697 2317 1792 
Q 2241 1888 2106 1945 
Q 1972 2003 1766 2003 
Q 1578 2003 1451 1945 
Q 1325 1888 1248 1791 
Q 1172 1694 1139 1567 
Q 1106 1441 1106 1300 
Q 1106 1134 1139 996 
Q 1172 859 1251 761 
Q 1331 663 1462 609 
Q 1594 556 1791 556 
Q 1988 556 2116 611 
Q 2244 666 2319 766 
Q 2394 866 2423 1005 
Q 2453 1144 2453 1313 
z
" transform="scale(0.015625)"/>
     </defs>
     <use xlink:href="#LiberationSans-Bold-32"/>
     <use xlink:href="#LiberationSans-Bold-30" x="55.615234"/>
     <use xlink:href="#LiberationSans-Bold-34" x="111.230469"/>
     <use xlink:href="#LiberationSans-Bold-38" x="166.845703"/>
    </g>
   </g>
   <g id="text_18">
    <!-- 2048 -->
    <g style="fill: #ffffff" transform="translate(479.968125 290.633118) scale(0.09 -0.09)">
     <use xlink:href="#LiberationSans-Bold-32"/>
     <use xlink:href="#LiberationSans-Bold-30" x="55.615234"/>
     <use xlink:href="#LiberationSans-Bold-34" x="111.230469"/>
     <use xlink:href="#LiberationSans-Bold-38" x="166.845703"/>
    </g>
   </g>
   <g id="text_19">
    <!-- 512 -->
    <g style="fill: #212529" transform="translate(774.48974 404.904107) scale(0.1 -0.1)">
     <defs>
      <path id="LiberationSans-Bold-35" d="M 3381 1466 
Q 3381 1134 3276 854 
Q 3172 575 2965 370 
Q 2759 166 2454 51 
Q 2150 -63 1750 -63 
Q 1381 -63 1106 26 
Q 831 116 642 273 
Q 453 431 345 643 
Q 238 856 197 1100 
L 1075 1172 
Q 1100 1069 1145 972 
Q 1191 875 1272 800 
Q 1353 725 1472 679 
Q 1591 634 1759 634 
Q 2088 634 2283 843 
Q 2478 1053 2478 1447 
Q 2478 1622 2429 1762 
Q 2381 1903 2292 2003 
Q 2203 2103 2073 2156 
Q 1944 2209 1778 2209 
Q 1559 2209 1418 2126 
Q 1278 2044 1181 1925 
L 325 1925 
L 478 4403 
L 3125 4403 
L 3125 3750 
L 1275 3750 
L 1203 2638 
Q 1334 2753 1534 2836 
Q 1734 2919 2000 2919 
Q 2325 2919 2581 2812 
Q 2838 2706 3016 2515 
Q 3194 2325 3287 2058 
Q 3381 1791 3381 1466 
z
" transform="scale(0.015625)"/>
     </defs>
     <use xlink:href="#LiberationSans-Bold-35"/>
     <use xlink:href="#LiberationSans-Bold-31" x="55.615234"/>
     <use xlink:href="#LiberationSans-Bold-32" x="111.230469"/>
    </g>
   </g>
   <g id="text_20">
    <!-- 512 -->
    <g style="fill: #ffffff" transform="translate(775.32388 472.275975) scale(0.09 -0.09)">
     <use xlink:href="#LiberationSans-Bold-35"/>
     <use xlink:href="#LiberationSans-Bold-31" x="55.615234"/>
     <use xlink:href="#LiberationSans-Bold-32" x="111.230469"/>
    </g>
   </g>
   <g id="text_21">
    <g id="patch_13">
     <path d="M 946.829012 321.867594 
L 1065.890575 321.867594 
Q 1068.590575 321.867594 1068.590575 319.167594 
L 1068.590575 233.224906 
Q 1068.590575 230.524906 1065.890575 230.524906 
L 946.829012 230.524906 
Q 944.129012 230.524906 944.129012 233.224906 
L 944.129012 319.167594 
Q 944.129012 321.867594 946.829012 321.867594 
z
" style="fill: #d3d3d3; opacity: 0.8; stroke: #000000; stroke-width: 0.3; stroke-linejoin: miter"/>
    </g>
    <!-- Job 1: 1024 total -->
    <g style="fill: #212529" transform="translate(946.829012 239.747094) scale(0.09 -0.09)">
     <defs>
      <path id="LiberationSans-3a" d="M 584 2734 
L 584 3381 
L 1194 3381 
L 1194 2734 
L 584 2734 
z
M 584 0 
L 584 647 
L 1194 647 
L 1194 0 
L 584 0 
z
" transform="scale(0.015625)"/>
      <path id="LiberationSans-34" d="M 2753 997 
L 2753 0 
L 2222 0 
L 2222 997 
L 147 997 
L 147 1434 
L 2163 4403 
L 2753 4403 
L 2753 1441 
L 3372 1441 
L 3372 997 
L 2753 997 
z
M 2222 3769 
Q 2216 3753 2191 3708 
Q 2166 3663 2134 3606 
Q 2103 3550 2070 3492 
Q 2038 3434 2013 3397 
L 884 1734 
Q 869 1709 839 1668 
Q 809 1628 778 1586 
Q 747 1544 715 1503 
Q 684 1463 666 1441 
L 2222 1441 
L 2222 3769 
z
" transform="scale(0.015625)"/>
      <path id="LiberationSans-61" d="M 1294 -63 
Q 784 -63 528 206 
Q 272 475 272 944 
Q 272 1278 398 1492 
Q 525 1706 729 1828 
Q 934 1950 1196 1997 
Q 1459 2044 1731 2050 
L 2491 2063 
L 2491 2247 
Q 2491 2456 2447 2603 
Q 2403 2750 2312 2840 
Q 2222 2931 2086 2973 
Q 1950 3016 1766 3016 
Q 1603 3016 1472 2992 
Q 1341 2969 1244 2908 
Q 1147 2847 1087 2742 
Q 1028 2638 1009 2478 
L 422 2531 
Q 453 2731 540 2898 
Q 628 3066 789 3187 
Q 950 3309 1192 3376 
Q 1434 3444 1778 3444 
Q 2416 3444 2737 3151 
Q 3059 2859 3059 2306 
L 3059 850 
Q 3059 600 3125 473 
Q 3191 347 3375 347 
Q 3422 347 3469 353 
Q 3516 359 3559 369 
L 3559 19 
Q 3453 -6 3348 -18 
Q 3244 -31 3125 -31 
Q 2966 -31 2852 11 
Q 2738 53 2666 139 
Q 2594 225 2556 351 
Q 2519 478 2509 647 
L 2491 647 
Q 2400 484 2292 353 
Q 2184 222 2040 130 
Q 1897 38 1714 -12 
Q 1531 -63 1294 -63 
z
M 1422 359 
Q 1691 359 1892 457 
Q 2094 556 2226 709 
Q 2359 863 2425 1044 
Q 2491 1225 2491 1391 
L 2491 1669 
L 1875 1656 
Q 1669 1653 1483 1626 
Q 1297 1600 1156 1522 
Q 1016 1444 933 1303 
Q 850 1163 850 934 
Q 850 659 998 509 
Q 1147 359 1422 359 
z
" transform="scale(0.015625)"/>
      <path id="LiberationSans-6c" d="M 431 0 
L 431 4638 
L 994 4638 
L 994 0 
L 431 0 
z
" transform="scale(0.015625)"/>
     </defs>
     <use xlink:href="#LiberationSans-4a"/>
     <use xlink:href="#LiberationSans-6f" x="50"/>
     <use xlink:href="#LiberationSans-62" x="105.615234"/>
     <use xlink:href="#LiberationSans-20" x="161.230469"/>
     <use xlink:href="#LiberationSans-31" x="189.013672"/>
     <use xlink:href="#LiberationSans-3a" x="244.628906"/>
     <use xlink:href="#LiberationSans-20" x="272.412109"/>
     <use xlink:href="#LiberationSans-31" x="300.195312"/>
     <use xlink:href="#LiberationSans-30" x="355.810547"/>
     <use xlink:href="#LiberationSans-32" x="411.425781"/>
     <use xlink:href="#LiberationSans-34" x="467.041016"/>
     <use xlink:href="#LiberationSans-20" x="522.65625"/>
     <use xlink:href="#LiberationSans-74" x="550.439453"/>
     <use xlink:href="#LiberationSans-6f" x="578.222656"/>
     <use xlink:href="#LiberationSans-74" x="633.837891"/>
     <use xlink:href="#LiberationSans-61" x="661.621094"/>
     <use xlink:href="#LiberationSans-6c" x="717.236328"/>
    </g>
    <!--   Successful Shots: 0 (0.0%) -->
    <g style="fill: #212529" transform="translate(946.829012 249.441219) scale(0.09 -0.09)">
     <defs>
      <path id="LiberationSans-63" d="M 859 1706 
Q 859 1416 901 1172 
Q 944 928 1044 751 
Q 1144 575 1308 478 
Q 1472 381 1713 381 
Q 2013 381 2214 543 
Q 2416 706 2463 1044 
L 3031 1006 
Q 3003 797 2909 603 
Q 2816 409 2655 262 
Q 2494 116 2262 26 
Q 2031 -63 1728 -63 
Q 1331 -63 1053 71 
Q 775 206 601 442 
Q 428 678 350 998 
Q 272 1319 272 1694 
Q 272 2034 328 2295 
Q 384 2556 486 2751 
Q 588 2947 725 3080 
Q 863 3213 1023 3292 
Q 1184 3372 1362 3408 
Q 1541 3444 1722 3444 
Q 2006 3444 2228 3366 
Q 2450 3288 2611 3152 
Q 2772 3016 2872 2831 
Q 2972 2647 3013 2434 
L 2434 2391 
Q 2391 2672 2212 2837 
Q 2034 3003 1706 3003 
Q 1466 3003 1305 2923 
Q 1144 2844 1044 2683 
Q 944 2522 901 2278 
Q 859 2034 859 1706 
z
" transform="scale(0.015625)"/>
      <path id="LiberationSans-28" d="M 397 1663 
Q 397 2097 462 2494 
Q 528 2891 668 3256 
Q 809 3622 1028 3965 
Q 1247 4309 1550 4638 
L 2094 4638 
Q 1800 4309 1586 3964 
Q 1372 3619 1234 3251 
Q 1097 2884 1030 2487 
Q 963 2091 963 1656 
Q 963 1222 1030 825 
Q 1097 428 1234 59 
Q 1372 -309 1586 -653 
Q 1800 -997 2094 -1325 
L 1550 -1325 
Q 1247 -997 1028 -653 
Q 809 -309 668 56 
Q 528 422 462 817 
Q 397 1213 397 1650 
L 397 1663 
z
" transform="scale(0.015625)"/>
      <path id="LiberationSans-2e" d="M 584 0 
L 584 684 
L 1194 684 
L 1194 0 
L 584 0 
z
" transform="scale(0.015625)"/>
      <path id="LiberationSans-25" d="M 5463 1356 
Q 5463 966 5383 698 
Q 5303 431 5167 267 
Q 5031 103 4850 32 
Q 4669 -38 4463 -38 
Q 4256 -38 4076 32 
Q 3897 103 3764 265 
Q 3631 428 3554 695 
Q 3478 963 3478 1356 
Q 3478 1772 3553 2044 
Q 3628 2316 3762 2477 
Q 3897 2638 4080 2702 
Q 4263 2766 4475 2766 
Q 4681 2766 4861 2702 
Q 5041 2638 5173 2477 
Q 5306 2316 5384 2044 
Q 5463 1772 5463 1356 
z
M 1647 0 
L 1163 0 
L 4044 4403 
L 4534 4403 
L 1647 0 
z
M 1231 4441 
Q 1431 4441 1609 4377 
Q 1788 4313 1922 4153 
Q 2056 3994 2132 3725 
Q 2209 3456 2209 3047 
Q 2209 2653 2131 2384 
Q 2053 2116 1920 1948 
Q 1788 1781 1606 1709 
Q 1425 1638 1219 1638 
Q 1009 1638 828 1709 
Q 647 1781 514 1947 
Q 381 2113 304 2381 
Q 228 2650 228 3047 
Q 228 3456 304 3725 
Q 381 3994 515 4153 
Q 650 4313 834 4377 
Q 1019 4441 1231 4441 
z
M 5000 1356 
Q 5000 1666 4965 1870 
Q 4931 2075 4864 2197 
Q 4797 2319 4698 2369 
Q 4600 2419 4475 2419 
Q 4344 2419 4244 2367 
Q 4144 2316 4075 2194 
Q 4006 2072 3972 1867 
Q 3938 1663 3938 1356 
Q 3938 1059 3973 859 
Q 4009 659 4076 536 
Q 4144 413 4242 359 
Q 4341 306 4469 306 
Q 4591 306 4689 359 
Q 4788 413 4856 536 
Q 4925 659 4962 859 
Q 5000 1059 5000 1356 
z
M 1750 3047 
Q 1750 3353 1715 3556 
Q 1681 3759 1615 3881 
Q 1550 4003 1453 4053 
Q 1356 4103 1231 4103 
Q 1097 4103 995 4051 
Q 894 4000 825 3878 
Q 756 3756 722 3553 
Q 688 3350 688 3047 
Q 688 2750 723 2547 
Q 759 2344 826 2220 
Q 894 2097 994 2044 
Q 1094 1991 1225 1991 
Q 1344 1991 1441 2044 
Q 1538 2097 1606 2220 
Q 1675 2344 1712 2547 
Q 1750 2750 1750 3047 
z
" transform="scale(0.015625)"/>
      <path id="LiberationSans-29" d="M 1734 1650 
Q 1734 1213 1668 817 
Q 1603 422 1462 56 
Q 1322 -309 1103 -653 
Q 884 -997 581 -1325 
L 38 -1325 
Q 331 -997 545 -653 
Q 759 -309 896 59 
Q 1034 428 1101 825 
Q 1169 1222 1169 1656 
Q 1169 2091 1101 2487 
Q 1034 2884 896 3251 
Q 759 3619 545 3964 
Q 331 4309 38 4638 
L 581 4638 
Q 884 4309 1103 3965 
Q 1322 3622 1462 3256 
Q 1603 2891 1668 2494 
Q 1734 2097 1734 1663 
L 1734 1650 
z
" transform="scale(0.015625)"/>
     </defs>
     <use xlink:href="#LiberationSans-20"/>
     <use xlink:href="#LiberationSans-20" x="27.783203"/>
     <use xlink:href="#LiberationSans-53" x="55.566406"/>
     <use xlink:href="#LiberationSans-75" x="122.265625"/>
     <use xlink:href="#LiberationSans-63" x="177.880859"/>
     <use xlink:href="#LiberationSans-63" x="227.880859"/>
     <use xlink:href="#LiberationSans-65" x="277.880859"/>
     <use xlink:href="#LiberationSans-73" x="333.496094"/>
     <use xlink:href="#LiberationSans-73" x="383.496094"/>
     <use xlink:href="#LiberationSans-66" x="433.496094"/>
     <use xlink:href="#LiberationSans-75" x="461.279297"/>
     <use xlink:href="#LiberationSans-6c" x="516.894531"/>
     <use xlink:href="#LiberationSans-20" x="539.111328"/>
     <use xlink:href="#LiberationSans-53" x="566.894531"/>
     <use xlink:href="#LiberationSans-68" x="633.59375"/>
     <use xlink:href="#LiberationSans-6f" x="689.208984"/>
     <use xlink:href="#LiberationSans-74" x="744.824219"/>
     <use xlink:href="#LiberationSans-73" x="772.607422"/>
     <use xlink:href="#LiberationSans-3a" x="822.607422"/>
     <use xlink:href="#LiberationSans-20" x="850.390625"/>
     <use xlink:href="#LiberationSans-30" x="878.173828"/>
     <use xlink:href="#LiberationSans-20" x="933.789062"/>
     <use xlink:href="#LiberationSans-28" x="961.572266"/>
     <use xlink:href="#LiberationSans-30" x="994.873047"/>
     <use xlink:href="#LiberationSans-2e" x="1050.488281"/>
     <use xlink:href="#LiberationSans-30" x="1078.271484"/>
     <use xlink:href="#LiberationSans-25" x="1133.886719"/>
     <use xlink:href="#LiberationSans-29" x="1222.802734"/>
    </g>
    <!--   Failed Shots: 1024 (100.0%) -->
    <g style="fill: #212529" transform="translate(946.829012 259.135344) scale(0.09 -0.09)">
     <defs>
      <path id="LiberationSans-46" d="M 1122 3916 
L 1122 2278 
L 3578 2278 
L 3578 1784 
L 1122 1784 
L 1122 0 
L 525 0 
L 525 4403 
L 3653 4403 
L 3653 3916 
L 1122 3916 
z
" transform="scale(0.015625)"/>
      <path id="LiberationSans-69" d="M 428 4100 
L 428 4638 
L 991 4638 
L 991 4100 
L 428 4100 
z
M 428 0 
L 428 3381 
L 991 3381 
L 991 0 
L 428 0 
z
" transform="scale(0.015625)"/>
      <path id="LiberationSans-64" d="M 2566 544 
Q 2409 219 2151 78 
Q 1894 -63 1513 -63 
Q 872 -63 570 368 
Q 269 800 269 1675 
Q 269 3444 1513 3444 
Q 1897 3444 2153 3303 
Q 2409 3163 2566 2856 
L 2572 2856 
Q 2572 2888 2570 2955 
Q 2569 3022 2567 3095 
Q 2566 3169 2566 3234 
Q 2566 3300 2566 3328 
L 2566 4638 
L 3128 4638 
L 3128 697 
Q 3128 575 3129 462 
Q 3131 350 3134 256 
Q 3138 163 3141 95 
Q 3144 28 3147 0 
L 2609 0 
Q 2603 31 2598 89 
Q 2594 147 2589 222 
Q 2584 297 2581 380 
Q 2578 463 2578 544 
L 2566 544 
z
M 859 1694 
Q 859 1344 903 1094 
Q 947 844 1044 683 
Q 1141 522 1291 447 
Q 1441 372 1656 372 
Q 1878 372 2048 444 
Q 2219 516 2333 677 
Q 2447 838 2506 1097 
Q 2566 1356 2566 1731 
Q 2566 2091 2506 2339 
Q 2447 2588 2331 2741 
Q 2216 2894 2048 2961 
Q 1881 3028 1663 3028 
Q 1456 3028 1306 2956 
Q 1156 2884 1056 2725 
Q 956 2566 907 2311 
Q 859 2056 859 1694 
z
" transform="scale(0.015625)"/>
     </defs>
     <use xlink:href="#LiberationSans-20"/>
     <use xlink:href="#LiberationSans-20" x="27.783203"/>
     <use xlink:href="#LiberationSans-46" x="55.566406"/>
     <use xlink:href="#LiberationSans-61" x="116.650391"/>
     <use xlink:href="#LiberationSans-69" x="172.265625"/>
     <use xlink:href="#LiberationSans-6c" x="194.482422"/>
     <use xlink:href="#LiberationSans-65" x="216.699219"/>
     <use xlink:href="#LiberationSans-64" x="272.314453"/>
     <use xlink:href="#LiberationSans-20" x="327.929688"/>
     <use xlink:href="#LiberationSans-53" x="355.712891"/>
     <use xlink:href="#LiberationSans-68" x="422.412109"/>
     <use xlink:href="#LiberationSans-6f" x="478.027344"/>
     <use xlink:href="#LiberationSans-74" x="533.642578"/>
     <use xlink:href="#LiberationSans-73" x="561.425781"/>
     <use xlink:href="#LiberationSans-3a" x="611.425781"/>
     <use xlink:href="#LiberationSans-20" x="639.208984"/>
     <use xlink:href="#LiberationSans-31" x="666.992188"/>
     <use xlink:href="#LiberationSans-30" x="722.607422"/>
     <use xlink:href="#LiberationSans-32" x="778.222656"/>
     <use xlink:href="#LiberationSans-34" x="833.837891"/>
     <use xlink:href="#LiberationSans-20" x="889.453125"/>
     <use xlink:href="#LiberationSans-28" x="917.236328"/>
     <use xlink:href="#LiberationSans-31" x="950.537109"/>
     <use xlink:href="#LiberationSans-30" x="1006.152344"/>
     <use xlink:href="#LiberationSans-30" x="1061.767578"/>
     <use xlink:href="#LiberationSans-2e" x="1117.382812"/>
     <use xlink:href="#LiberationSans-30" x="1145.166016"/>
     <use xlink:href="#LiberationSans-25" x="1200.78125"/>
     <use xlink:href="#LiberationSans-29" x="1289.697266"/>
    </g>
    <!-- Job 2: 2048 total -->
    <g style="fill: #212529" transform="translate(946.829012 268.829469) scale(0.09 -0.09)">
     <defs>
      <path id="LiberationSans-38" d="M 3281 1228 
Q 3281 947 3192 711 
Q 3103 475 2920 303 
Q 2738 131 2453 34 
Q 2169 -63 1781 -63 
Q 1394 -63 1111 34 
Q 828 131 642 301 
Q 456 472 367 708 
Q 278 944 278 1222 
Q 278 1463 351 1650 
Q 425 1838 548 1973 
Q 672 2109 830 2192 
Q 988 2275 1156 2303 
L 1156 2316 
Q 972 2359 826 2456 
Q 681 2553 582 2689 
Q 484 2825 432 2990 
Q 381 3156 381 3341 
Q 381 3572 470 3776 
Q 559 3981 734 4136 
Q 909 4291 1168 4380 
Q 1428 4469 1769 4469 
Q 2128 4469 2392 4378 
Q 2656 4288 2829 4133 
Q 3003 3978 3087 3772 
Q 3172 3566 3172 3334 
Q 3172 3153 3120 2987 
Q 3069 2822 2970 2686 
Q 2872 2550 2726 2454 
Q 2581 2359 2391 2322 
L 2391 2309 
Q 2581 2278 2743 2195 
Q 2906 2113 3025 1977 
Q 3144 1841 3212 1653 
Q 3281 1466 3281 1228 
z
M 2588 3303 
Q 2588 3469 2545 3606 
Q 2503 3744 2406 3842 
Q 2309 3941 2153 3995 
Q 1997 4050 1769 4050 
Q 1547 4050 1394 3995 
Q 1241 3941 1142 3842 
Q 1044 3744 1000 3606 
Q 956 3469 956 3303 
Q 956 3172 990 3034 
Q 1025 2897 1115 2784 
Q 1206 2672 1365 2600 
Q 1525 2528 1775 2528 
Q 2041 2528 2202 2600 
Q 2363 2672 2448 2784 
Q 2534 2897 2561 3034 
Q 2588 3172 2588 3303 
z
M 2697 1281 
Q 2697 1441 2653 1589 
Q 2609 1738 2503 1852 
Q 2397 1966 2217 2036 
Q 2038 2106 1769 2106 
Q 1522 2106 1348 2036 
Q 1175 1966 1067 1850 
Q 959 1734 909 1582 
Q 859 1431 859 1269 
Q 859 1066 909 898 
Q 959 731 1068 611 
Q 1178 491 1356 425 
Q 1534 359 1788 359 
Q 2044 359 2219 425 
Q 2394 491 2500 611 
Q 2606 731 2651 901 
Q 2697 1072 2697 1281 
z
" transform="scale(0.015625)"/>
     </defs>
     <use xlink:href="#LiberationSans-4a"/>
     <use xlink:href="#LiberationSans-6f" x="50"/>
     <use xlink:href="#LiberationSans-62" x="105.615234"/>
     <use xlink:href="#LiberationSans-20" x="161.230469"/>
     <use xlink:href="#LiberationSans-32" x="189.013672"/>
     <use xlink:href="#LiberationSans-3a" x="244.628906"/>
     <use xlink:href="#LiberationSans-20" x="272.412109"/>
     <use xlink:href="#LiberationSans-32" x="300.195312"/>
     <use xlink:href="#LiberationSans-30" x="355.810547"/>
     <use xlink:href="#LiberationSans-34" x="411.425781"/>
     <use xlink:href="#LiberationSans-38" x="467.041016"/>
     <use xlink:href="#LiberationSans-20" x="522.65625"/>
     <use xlink:href="#LiberationSans-74" x="550.439453"/>
     <use xlink:href="#LiberationSans-6f" x="578.222656"/>
     <use xlink:href="#LiberationSans-74" x="633.837891"/>
     <use xlink:href="#LiberationSans-61" x="661.621094"/>
     <use xlink:href="#LiberationSans-6c" x="717.236328"/>
    </g>
    <!--   Successful Shots: 0 (0.0%) -->
    <g style="fill: #212529" transform="translate(946.829012 278.523594) scale(0.09 -0.09)">
     <use xlink:href="#LiberationSans-20"/>
     <use xlink:href="#LiberationSans-20" x="27.783203"/>
     <use xlink:href="#LiberationSans-53" x="55.566406"/>
     <use xlink:href="#LiberationSans-75" x="122.265625"/>
     <use xlink:href="#LiberationSans-63" x="177.880859"/>
     <use xlink:href="#LiberationSans-63" x="227.880859"/>
     <use xlink:href="#LiberationSans-65" x="277.880859"/>
     <use xlink:href="#LiberationSans-73" x="333.496094"/>
     <use xlink:href="#LiberationSans-73" x="383.496094"/>
     <use xlink:href="#LiberationSans-66" x="433.496094"/>
     <use xlink:href="#LiberationSans-75" x="461.279297"/>
     <use xlink:href="#LiberationSans-6c" x="516.894531"/>
     <use xlink:href="#LiberationSans-20" x="539.111328"/>
     <use xlink:href="#LiberationSans-53" x="566.894531"/>
     <use xlink:href="#LiberationSans-68" x="633.59375"/>
     <use xlink:href="#LiberationSans-6f" x="689.208984"/>
     <use xlink:href="#LiberationSans-74" x="744.824219"/>
     <use xlink:href="#LiberationSans-73" x="772.607422"/>
     <use xlink:href="#LiberationSans-3a" x="822.607422"/>
     <use xlink:href="#LiberationSans-20" x="850.390625"/>
     <use xlink:href="#LiberationSans-30" x="878.173828"/>
     <use xlink:href="#LiberationSans-20" x="933.789062"/>
     <use xlink:href="#LiberationSans-28" x="961.572266"/>
     <use xlink:href="#LiberationSans-30" x="994.873047"/>
     <use xlink:href="#LiberationSans-2e" x="1050.488281"/>
     <use xlink:href="#LiberationSans-30" x="1078.271484"/>
     <use xlink:href="#LiberationSans-25" x="1133.886719"/>
     <use xlink:href="#LiberationSans-29" x="1222.802734"/>
    </g>
    <!--   Failed Shots: 2048 (100.0%) -->
    <g style="fill: #212529" transform="translate(946.829012 288.217719) scale(0.09 -0.09)">
     <use xlink:href="#LiberationSans-20"/>
     <use xlink:href="#LiberationSans-20" x="27.783203"/>
     <use xlink:href="#LiberationSans-46" x="55.566406"/>
     <use xlink:href="#LiberationSans-61" x="116.650391"/>
     <use xlink:href="#LiberationSans-69" x="172.265625"/>
     <use xlink:href="#LiberationSans-6c" x="194.482422"/>
     <use xlink:href="#LiberationSans-65" x="216.699219"/>
     <use xlink:href="#LiberationSans-64" x="272.314453"/>
     <use xlink:href="#LiberationSans-20" x="327.929688"/>
     <use xlink:href="#LiberationSans-53" x="355.712891"/>
     <use xlink:href="#LiberationSans-68" x="422.412109"/>
     <use xlink:href="#LiberationSans-6f" x="478.027344"/>
     <use xlink:href="#LiberationSans-74" x="533.642578"/>
     <use xlink:href="#LiberationSans-73" x="561.425781"/>
     <use xlink:href="#LiberationSans-3a" x="611.425781"/>
     <use xlink:href="#LiberationSans-20" x="639.208984"/>
     <use xlink:href="#LiberationSans-32" x="666.992188"/>
     <use xlink:href="#LiberationSans-30" x="722.607422"/>
     <use xlink:href="#LiberationSans-34" x="778.222656"/>
     <use xlink:href="#LiberationSans-38" x="833.837891"/>
     <use xlink:href="#LiberationSans-20" x="889.453125"/>
     <use xlink:href="#LiberationSans-28" x="917.236328"/>
     <use xlink:href="#LiberationSans-31" x="950.537109"/>
     <use xlink:href="#LiberationSans-30" x="1006.152344"/>
     <use xlink:href="#LiberationSans-30" x="1061.767578"/>
     <use xlink:href="#LiberationSans-2e" x="1117.382812"/>
     <use xlink:href="#LiberationSans-30" x="1145.166016"/>
     <use xlink:href="#LiberationSans-25" x="1200.78125"/>
     <use xlink:href="#LiberationSans-29" x="1289.697266"/>
    </g>
    <!-- Job 3: 512 total -->
    <g style="fill: #212529" transform="translate(946.829012 297.911844) scale(0.09 -0.09)">
     <use xlink:href="#LiberationSans-4a"/>
     <use xlink:href="#LiberationSans-6f" x="50"/>
     <use xlink:href="#LiberationSans-62" x="105.615234"/>
     <use xlink:href="#LiberationSans-20" x="161.230469"/>
     <use xlink:href="#LiberationSans-33" x="189.013672"/>
     <use xlink:href="#LiberationSans-3a" x="244.628906"/>
     <use xlink:href="#LiberationSans-20" x="272.412109"/>
     <use xlink:href="#LiberationSans-35" x="300.195312"/>
     <use xlink:href="#LiberationSans-31" x="355.810547"/>
     <use xlink:href="#LiberationSans-32" x="411.425781"/>
     <use xlink:href="#LiberationSans-20" x="467.041016"/>
     <use xlink:href="#LiberationSans-74" x="494.824219"/>
     <use xlink:href="#LiberationSans-6f" x="522.607422"/>
     <use xlink:href="#LiberationSans-74" x="578.222656"/>
     <use xlink:href="#LiberationSans-61" x="606.005859"/>
     <use xlink:href="#LiberationSans-6c" x="661.621094"/>
    </g>
    <!--   Successful Shots: 0 (0.0%) -->
    <g style="fill: #212529" transform="translate(946.829012 307.605969) scale(0.09 -0.09)">
     <use xlink:href="#LiberationSans-20"/>
     <use xlink:href="#LiberationSans-20" x="27.783203"/>
     <use xlink:href="#LiberationSans-53" x="55.566406"/>
     <use xlink:href="#LiberationSans-75" x="122.265625"/>
     <use xlink:href="#LiberationSans-63" x="177.880859"/>
     <use xlink:href="#LiberationSans-63" x="227.880859"/>
     <use xlink:href="#LiberationSans-65" x="277.880859"/>
     <use xlink:href="#LiberationSans-73" x="333.496094"/>
     <use xlink:href="#LiberationSans-73" x="383.496094"/>
     <use xlink:href="#LiberationSans-66" x="433.496094"/>
     <use xlink:href="#LiberationSans-75" x="461.279297"/>
     <use xlink:href="#LiberationSans-6c" x="516.894531"/>
     <use xlink:href="#LiberationSans-20" x="539.111328"/>
     <use xlink:href="#LiberationSans-53" x="566.894531"/>
     <use xlink:href="#LiberationSans-68" x="633.59375"/>
     <use xlink:href="#LiberationSans-6f" x="689.208984"/>
     <use xlink:href="#LiberationSans-74" x="744.824219"/>
     <use xlink:href="#LiberationSans-73" x="772.607422"/>
     <use xlink:href="#LiberationSans-3a" x="822.607422"/>
     <use xlink:href="#LiberationSans-20" x="850.390625"/>
     <use xlink:href="#LiberationSans-30" x="878.173828"/>
     <use xlink:href="#LiberationSans-20" x="933.789062"/>
     <use xlink:href="#LiberationSans-28" x="961.572266"/>
     <use xlink:href="#LiberationSans-30" x="994.873047"/>
     <use xlink:href="#LiberationSans-2e" x="1050.488281"/>
     <use xlink:href="#LiberationSans-30" x="1078.271484"/>
     <use xlink:href="#LiberationSans-25" x="1133.886719"/>
     <use xlink:href="#LiberationSans-29" x="1222.802734"/>
    </g>
    <!--   Failed Shots: 512 (100.0%) -->
    <g style="fill: #212529" transform="translate(946.829012 317.300094) scale(0.09 -0.09)">
     <use xlink:href="#LiberationSans-20"/>
     <use xlink:href="#LiberationSans-20" x="27.783203"/>
     <use xlink:href="#LiberationSans-46" x="55.566406"/>
     <use xlink:href="#LiberationSans-61" x="116.650391"/>
     <use xlink:href="#LiberationSans-69" x="172.265625"/>
     <use xlink:href="#LiberationSans-6c" x="194.482422"/>
     <use xlink:href="#LiberationSans-65" x="216.699219"/>
     <use xlink:href="#LiberationSans-64" x="272.314453"/>
     <use xlink:href="#LiberationSans-20" x="327.929688"/>
     <use xlink:href="#LiberationSans-53" x="355.712891"/>
     <use xlink:href="#LiberationSans-68" x="422.412109"/>
     <use xlink:href="#LiberationSans-6f" x="478.027344"/>
     <use xlink:href="#LiberationSans-74" x="533.642578"/>
     <use xlink:href="#LiberationSans-73" x="561.425781"/>
     <use xlink:href="#LiberationSans-3a" x="611.425781"/>
     <use xlink:href="#LiberationSans-20" x="639.208984"/>
     <use xlink:href="#LiberationSans-35" x="666.992188"/>
     <use xlink:href="#LiberationSans-31" x="722.607422"/>
     <use xlink:href="#LiberationSans-32" x="778.222656"/>
     <use xlink:href="#LiberationSans-20" x="833.837891"/>
     <use xlink:href="#LiberationSans-28" x="861.621094"/>
     <use xlink:href="#LiberationSans-31" x="894.921875"/>
     <use xlink:href="#LiberationSans-30" x="950.537109"/>
     <use xlink:href="#LiberationSans-30" x="1006.152344"/>
     <use xlink:href="#LiberationSans-2e" x="1061.767578"/>
     <use xlink:href="#LiberationSans-30" x="1089.550781"/>
     <use xlink:href="#LiberationSans-25" x="1145.166016"/>
     <use xlink:href="#LiberationSans-29" x="1234.082031"/>
    </g>
   </g>
   <g id="text_22">
    <!-- Shot Distribution by Job -->
    <g style="fill: #212529" transform="translate(426.615 15.89625) scale(0.12 -0.12)">
     <defs>
      <path id="LiberationSans-44" d="M 4316 2247 
Q 4316 1697 4150 1276 
Q 3984 856 3696 573 
Q 3409 291 3017 145 
Q 2625 0 2172 0 
L 525 0 
L 525 4403 
L 1981 4403 
Q 2491 4403 2920 4276 
Q 3350 4150 3659 3886 
Q 3969 3622 4142 3215 
Q 4316 2809 4316 2247 
z
M 3716 2247 
Q 3716 2694 3587 3011 
Q 3459 3328 3228 3531 
Q 2997 3734 2675 3829 
Q 2353 3925 1969 3925 
L 1122 3925 
L 1122 478 
L 2103 478 
Q 2450 478 2745 590 
Q 3041 703 3256 925 
Q 3472 1147 3594 1478 
Q 3716 1809 3716 2247 
z
" transform="scale(0.015625)"/>
      <path id="LiberationSans-6e" d="M 2578 0 
L 2578 2144 
Q 2578 2391 2542 2556 
Q 2506 2722 2425 2823 
Q 2344 2925 2211 2967 
Q 2078 3009 1881 3009 
Q 1681 3009 1520 2939 
Q 1359 2869 1245 2736 
Q 1131 2603 1068 2408 
Q 1006 2213 1006 1959 
L 1006 0 
L 444 0 
L 444 2659 
Q 444 2766 442 2883 
Q 441 3000 437 3104 
Q 434 3209 431 3284 
Q 428 3359 425 3381 
L 956 3381 
Q 959 3366 962 3297 
Q 966 3228 970 3139 
Q 975 3050 978 2958 
Q 981 2866 981 2803 
L 991 2803 
Q 1072 2950 1169 3069 
Q 1266 3188 1394 3270 
Q 1522 3353 1687 3398 
Q 1853 3444 2072 3444 
Q 2353 3444 2556 3375 
Q 2759 3306 2890 3162 
Q 3022 3019 3083 2792 
Q 3144 2566 3144 2253 
L 3144 0 
L 2578 0 
z
" transform="scale(0.015625)"/>
      <path id="LiberationSans-79" d="M 1888 0 
Q 1769 -306 1645 -551 
Q 1522 -797 1369 -970 
Q 1216 -1144 1028 -1236 
Q 841 -1328 597 -1328 
Q 491 -1328 400 -1322 
Q 309 -1316 209 -1294 
L 209 -872 
Q 269 -881 344 -886 
Q 419 -891 472 -891 
Q 719 -891 931 -706 
Q 1144 -522 1303 -119 
L 1356 16 
L 16 3381 
L 616 3381 
L 1328 1513 
Q 1359 1428 1407 1287 
Q 1456 1147 1504 1006 
Q 1553 866 1590 753 
Q 1628 641 1634 613 
Q 1644 647 1680 748 
Q 1716 850 1761 975 
Q 1806 1100 1853 1228 
Q 1900 1356 1931 1450 
L 2594 3381 
L 3188 3381 
L 1888 0 
z
" transform="scale(0.015625)"/>
     </defs>
     <use xlink:href="#LiberationSans-53"/>
     <use xlink:href="#LiberationSans-68" x="66.699219"/>
     <use xlink:href="#LiberationSans-6f" x="122.314453"/>
     <use xlink:href="#LiberationSans-74" x="177.929688"/>
     <use xlink:href="#LiberationSans-20" x="205.712891"/>
     <use xlink:href="#LiberationSans-44" x="233.496094"/>
     <use xlink:href="#LiberationSans-69" x="305.712891"/>
     <use xlink:href="#LiberationSans-73" x="327.929688"/>
     <use xlink:href="#LiberationSans-74" x="377.929688"/>
     <use xlink:href="#LiberationSans-72" x="405.712891"/>
     <use xlink:href="#LiberationSans-69" x="439.013672"/>
     <use xlink:href="#LiberationSans-62" x="461.230469"/>
     <use xlink:href="#LiberationSans-75" x="516.845703"/>
     <use xlink:href="#LiberationSans-74" x="572.460938"/>
     <use xlink:href="#LiberationSans-69" x="600.244141"/>
     <use xlink:href="#LiberationSans-6f" x="622.460938"/>
     <use xlink:href="#LiberationSans-6e" x="678.076172"/>
     <use xlink:href="#LiberationSans-20" x="733.691406"/>
     <use xlink:href="#LiberationSans-62" x="761.474609"/>
     <use xlink:href="#LiberationSans-79" x="817.089844"/>
     <use xlink:href="#LiberationSans-20" x="867.089844"/>
     <use xlink:href="#LiberationSans-4a" x="894.873047"/>
     <use xlink:href="#LiberationSans-6f" x="944.873047"/>
     <use xlink:href="#LiberationSans-62" x="1000.488281"/>
    </g>
   </g>
   <g id="legend_1">
    <g id="patch_14">
     <path d="M 815.55625 38.143125 
L 835.55625 38.143125 
L 835.55625 31.143125 
L 815.55625 31.143125 
z
" style="fill: #1f77b4; opacity: 0.7"/>
    </g>
    <g id="text_23">
     <!-- Successful Shots -->
     <g style="fill: #212529" transform="translate(843.55625 38.143125) scale(0.1 -0.1)">
      <use xlink:href="#LiberationSans-53"/>
      <use xlink:href="#LiberationSans-75" x="66.699219"/>
      <use xlink:href="#LiberationSans-63" x="122.314453"/>
      <use xlink:href="#LiberationSans-63" x="172.314453"/>
      <use xlink:href="#LiberationSans-65" x="222.314453"/>
      <use xlink:href="#LiberationSans-73" x="277.929688"/>
      <use xlink:href="#LiberationSans-73" x="327.929688"/>
      <use xlink:href="#LiberationSans-66" x="377.929688"/>
      <use xlink:href="#LiberationSans-75" x="405.712891"/>
      <use xlink:href="#LiberationSans-6c" x="461.328125"/>
      <use xlink:href="#LiberationSans-20" x="483.544922"/>
      <use xlink:href="#LiberationSans-53" x="511.328125"/>
      <use xlink:href="#LiberationSans-68" x="578.027344"/>
      <use xlink:href="#LiberationSans-6f" x="633.642578"/>
      <use xlink:href="#LiberationSans-74" x="689.257812"/>
      <use xlink:href="#LiberationSans-73" x="717.041016"/>
     </g>
    </g>
    <g id="patch_15">
     <path d="M 815.55625 52.465 
L 835.55625 52.465 
L 835.55625 45.465 
L 815.55625 45.465 
z
" style="fill: #ff7f0e; opacity: 0.7"/>
    </g>
    <g id="text_24">
     <!-- Failed Shots -->
     <g style="fill: #212529" transform="translate(843.55625 52.465) scale(0.1 -0.1)">
      <use xlink:href="#LiberationSans-46"/>
      <use xlink:href="#LiberationSans-61" x="61.083984"/>
      <use xlink:href="#LiberationSans-69" x="116.699219"/>
      <use xlink:href="#LiberationSans-6c" x="138.916016"/>
      <use xlink:href="#LiberationSans-65" x="161.132812"/>
      <use xlink:href="#LiberationSans-64" x="216.748047"/>
      <use xlink:href="#LiberationSans-20" x="272.363281"/>
      <use xlink:href="#LiberationSans-53" x="300.146484"/>
      <use xlink:href="#LiberationSans-68" x="366.845703"/>
      <use xlink:href="#LiberationSans-6f" x="422.460938"/>
      <use xlink:href="#LiberationSans-74" x="478.076172"/>
      <use xlink:href="#LiberationSans-73" x="505.859375"/>
     </g>
    </g>
   </g>
  </g>
 </g>
 <defs>
  <clipPath id="p54c44ed918">
   <rect x="50.697813" y="21.89625" width="878.56" height="508.6"/>
  </clipPath>
 </defs>
</svg>
