<?xml version="1.0" encoding="utf-8" standalone="no"?>
<!DOCTYPE svg PUBLIC "-//W3C//DTD SVG 1.1//EN"
  "http://www.w3.org/Graphics/SVG/1.1/DTD/svg11.dtd">
<svg xmlns:xlink="http://www.w3.org/1999/xlink" width="856.414844pt" height="568.244531pt" viewBox="0 0 856.414844 568.244531" xmlns="http://www.w3.org/2000/svg" version="1.1">
 <metadata>
  <rdf:RDF xmlns:dc="http://purl.org/dc/elements/1.1/" xmlns:cc="http://creativecommons.org/ns#" xmlns:rdf="http://www.w3.org/1999/02/22-rdf-syntax-ns#">
   <cc:Work>
    <dc:type rdf:resource="http://purl.org/dc/dcmitype/StillImage"/>
    <dc:date>2025-05-30T14:35:18.963170</dc:date>
    <dc:format>image/svg+xml</dc:format>
    <dc:creator>
     <cc:Agent>
      <dc:title>Matplotlib v3.10.1, https://matplotlib.org/</dc:title>
     </cc:Agent>
    </dc:creator>
   </cc:Work>
  </rdf:RDF>
 </metadata>
 <defs>
  <style type="text/css">*{stroke-linejoin: round; stroke-linecap: butt}</style>
 </defs>
 <g id="figure_1">
  <g id="patch_1">
   <path d="M -0 568.244531 
L 856.414844 568.244531 
L 856.414844 0 
L -0 0 
z
" style="fill: #ffffff"/>
  </g>
  <g id="axes_1">
   <g id="patch_2">
    <path d="M 42.159844 530.839375 
L 849.214844 530.839375 
L 849.214844 21.935625 
L 42.159844 21.935625 
z
" style="fill: #f8f9fa"/>
   </g>
   <g id="matplotlib.axis_1">
    <g id="xtick_1">
     <g id="line2d_1">
      <path d="M 176.66901 530.839375 
L 176.66901 21.935625 
" clip-path="url(#paaefc10fa9)" style="fill: none; stroke: #e9ecef; stroke-opacity: 0.3; stroke-linecap: round"/>
     </g>
     <g id="line2d_2"/>
     <g id="text_1">
      <!-- Job 1 -->
      <g style="fill: #262626" transform="translate(164.438542 544.997187) scale(0.1 -0.1)">
       <defs>
        <path id="ArialMT-4a" d="M 184 1300 
L 731 1375 
Q 753 850 928 656 
Q 1103 463 1413 463 
Q 1641 463 1806 567 
Q 1972 672 2034 851 
Q 2097 1031 2097 1425 
L 2097 4581 
L 2703 4581 
L 2703 1459 
Q 2703 884 2564 568 
Q 2425 253 2123 87 
Q 1822 -78 1416 -78 
Q 813 -78 492 269 
Q 172 616 184 1300 
z
" transform="scale(0.015625)"/>
        <path id="ArialMT-6f" d="M 213 1659 
Q 213 2581 725 3025 
Q 1153 3394 1769 3394 
Q 2453 3394 2887 2945 
Q 3322 2497 3322 1706 
Q 3322 1066 3130 698 
Q 2938 331 2570 128 
Q 2203 -75 1769 -75 
Q 1072 -75 642 372 
Q 213 819 213 1659 
z
M 791 1659 
Q 791 1022 1069 705 
Q 1347 388 1769 388 
Q 2188 388 2466 706 
Q 2744 1025 2744 1678 
Q 2744 2294 2464 2611 
Q 2184 2928 1769 2928 
Q 1347 2928 1069 2612 
Q 791 2297 791 1659 
z
" transform="scale(0.015625)"/>
        <path id="ArialMT-62" d="M 941 0 
L 419 0 
L 419 4581 
L 981 4581 
L 981 2947 
Q 1338 3394 1891 3394 
Q 2197 3394 2470 3270 
Q 2744 3147 2920 2923 
Q 3097 2700 3197 2384 
Q 3297 2069 3297 1709 
Q 3297 856 2875 390 
Q 2453 -75 1863 -75 
Q 1275 -75 941 416 
L 941 0 
z
M 934 1684 
Q 934 1088 1097 822 
Q 1363 388 1816 388 
Q 2184 388 2453 708 
Q 2722 1028 2722 1663 
Q 2722 2313 2464 2622 
Q 2206 2931 1841 2931 
Q 1472 2931 1203 2611 
Q 934 2291 934 1684 
z
" transform="scale(0.015625)"/>
        <path id="ArialMT-20" transform="scale(0.015625)"/>
        <path id="ArialMT-31" d="M 2384 0 
L 1822 0 
L 1822 3584 
Q 1619 3391 1289 3197 
Q 959 3003 697 2906 
L 697 3450 
Q 1169 3672 1522 3987 
Q 1875 4303 2022 4600 
L 2384 4600 
L 2384 0 
z
" transform="scale(0.015625)"/>
       </defs>
       <use xlink:href="#ArialMT-4a"/>
       <use xlink:href="#ArialMT-6f" transform="translate(50 0)"/>
       <use xlink:href="#ArialMT-62" transform="translate(105.615234 0)"/>
       <use xlink:href="#ArialMT-20" transform="translate(161.230469 0)"/>
       <use xlink:href="#ArialMT-31" transform="translate(189.013672 0)"/>
      </g>
     </g>
    </g>
    <g id="xtick_2">
     <g id="line2d_3">
      <path d="M 445.687344 530.839375 
L 445.687344 21.935625 
" clip-path="url(#paaefc10fa9)" style="fill: none; stroke: #e9ecef; stroke-opacity: 0.3; stroke-linecap: round"/>
     </g>
     <g id="line2d_4"/>
     <g id="text_2">
      <!-- Job 2 -->
      <g style="fill: #262626" transform="translate(433.456875 544.997187) scale(0.1 -0.1)">
       <defs>
        <path id="ArialMT-32" d="M 3222 541 
L 3222 0 
L 194 0 
Q 188 203 259 391 
Q 375 700 629 1000 
Q 884 1300 1366 1694 
Q 2113 2306 2375 2664 
Q 2638 3022 2638 3341 
Q 2638 3675 2398 3904 
Q 2159 4134 1775 4134 
Q 1369 4134 1125 3890 
Q 881 3647 878 3216 
L 300 3275 
Q 359 3922 746 4261 
Q 1134 4600 1788 4600 
Q 2447 4600 2831 4234 
Q 3216 3869 3216 3328 
Q 3216 3053 3103 2787 
Q 2991 2522 2730 2228 
Q 2469 1934 1863 1422 
Q 1356 997 1212 845 
Q 1069 694 975 541 
L 3222 541 
z
" transform="scale(0.015625)"/>
       </defs>
       <use xlink:href="#ArialMT-4a"/>
       <use xlink:href="#ArialMT-6f" transform="translate(50 0)"/>
       <use xlink:href="#ArialMT-62" transform="translate(105.615234 0)"/>
       <use xlink:href="#ArialMT-20" transform="translate(161.230469 0)"/>
       <use xlink:href="#ArialMT-32" transform="translate(189.013672 0)"/>
      </g>
     </g>
    </g>
    <g id="xtick_3">
     <g id="line2d_5">
      <path d="M 714.705677 530.839375 
L 714.705677 21.935625 
" clip-path="url(#paaefc10fa9)" style="fill: none; stroke: #e9ecef; stroke-opacity: 0.3; stroke-linecap: round"/>
     </g>
     <g id="line2d_6"/>
     <g id="text_3">
      <!-- Job 3 -->
      <g style="fill: #262626" transform="translate(702.475208 544.997187) scale(0.1 -0.1)">
       <defs>
        <path id="ArialMT-33" d="M 269 1209 
L 831 1284 
Q 928 806 1161 595 
Q 1394 384 1728 384 
Q 2125 384 2398 659 
Q 2672 934 2672 1341 
Q 2672 1728 2419 1979 
Q 2166 2231 1775 2231 
Q 1616 2231 1378 2169 
L 1441 2663 
Q 1497 2656 1531 2656 
Q 1891 2656 2178 2843 
Q 2466 3031 2466 3422 
Q 2466 3731 2256 3934 
Q 2047 4138 1716 4138 
Q 1388 4138 1169 3931 
Q 950 3725 888 3313 
L 325 3413 
Q 428 3978 793 4289 
Q 1159 4600 1703 4600 
Q 2078 4600 2393 4439 
Q 2709 4278 2876 4000 
Q 3044 3722 3044 3409 
Q 3044 3113 2884 2869 
Q 2725 2625 2413 2481 
Q 2819 2388 3044 2092 
Q 3269 1797 3269 1353 
Q 3269 753 2831 336 
Q 2394 -81 1725 -81 
Q 1122 -81 723 278 
Q 325 638 269 1209 
z
" transform="scale(0.015625)"/>
       </defs>
       <use xlink:href="#ArialMT-4a"/>
       <use xlink:href="#ArialMT-6f" transform="translate(50 0)"/>
       <use xlink:href="#ArialMT-62" transform="translate(105.615234 0)"/>
       <use xlink:href="#ArialMT-20" transform="translate(161.230469 0)"/>
       <use xlink:href="#ArialMT-33" transform="translate(189.013672 0)"/>
      </g>
     </g>
    </g>
    <g id="text_4">
     <!-- Jobs -->
     <g style="fill: #262626" transform="translate(434.070312 558.858281) scale(0.11 -0.11)">
      <defs>
       <path id="ArialMT-73" d="M 197 991 
L 753 1078 
Q 800 744 1014 566 
Q 1228 388 1613 388 
Q 2000 388 2187 545 
Q 2375 703 2375 916 
Q 2375 1106 2209 1216 
Q 2094 1291 1634 1406 
Q 1016 1563 777 1677 
Q 538 1791 414 1992 
Q 291 2194 291 2438 
Q 291 2659 392 2848 
Q 494 3038 669 3163 
Q 800 3259 1026 3326 
Q 1253 3394 1513 3394 
Q 1903 3394 2198 3281 
Q 2494 3169 2634 2976 
Q 2775 2784 2828 2463 
L 2278 2388 
Q 2241 2644 2061 2787 
Q 1881 2931 1553 2931 
Q 1166 2931 1000 2803 
Q 834 2675 834 2503 
Q 834 2394 903 2306 
Q 972 2216 1119 2156 
Q 1203 2125 1616 2013 
Q 2213 1853 2448 1751 
Q 2684 1650 2818 1456 
Q 2953 1263 2953 975 
Q 2953 694 2789 445 
Q 2625 197 2315 61 
Q 2006 -75 1616 -75 
Q 969 -75 630 194 
Q 291 463 197 991 
z
" transform="scale(0.015625)"/>
      </defs>
      <use xlink:href="#ArialMT-4a"/>
      <use xlink:href="#ArialMT-6f" transform="translate(50 0)"/>
      <use xlink:href="#ArialMT-62" transform="translate(105.615234 0)"/>
      <use xlink:href="#ArialMT-73" transform="translate(161.230469 0)"/>
     </g>
    </g>
   </g>
   <g id="matplotlib.axis_2">
    <g id="ytick_1">
     <g id="line2d_7">
      <path d="M 42.159844 530.839375 
L 849.214844 530.839375 
" clip-path="url(#paaefc10fa9)" style="fill: none; stroke: #e9ecef; stroke-opacity: 0.3; stroke-linecap: round"/>
     </g>
     <g id="line2d_8"/>
     <g id="text_5">
      <!-- 0.0 -->
      <g style="fill: #262626" transform="translate(21.259844 534.418281) scale(0.1 -0.1)">
       <defs>
        <path id="ArialMT-30" d="M 266 2259 
Q 266 3072 433 3567 
Q 600 4063 929 4331 
Q 1259 4600 1759 4600 
Q 2128 4600 2406 4451 
Q 2684 4303 2865 4023 
Q 3047 3744 3150 3342 
Q 3253 2941 3253 2259 
Q 3253 1453 3087 958 
Q 2922 463 2592 192 
Q 2263 -78 1759 -78 
Q 1097 -78 719 397 
Q 266 969 266 2259 
z
M 844 2259 
Q 844 1131 1108 757 
Q 1372 384 1759 384 
Q 2147 384 2411 759 
Q 2675 1134 2675 2259 
Q 2675 3391 2411 3762 
Q 2147 4134 1753 4134 
Q 1366 4134 1134 3806 
Q 844 3388 844 2259 
z
" transform="scale(0.015625)"/>
        <path id="ArialMT-2e" d="M 581 0 
L 581 641 
L 1222 641 
L 1222 0 
L 581 0 
z
" transform="scale(0.015625)"/>
       </defs>
       <use xlink:href="#ArialMT-30"/>
       <use xlink:href="#ArialMT-2e" transform="translate(55.615234 0)"/>
       <use xlink:href="#ArialMT-30" transform="translate(83.398438 0)"/>
      </g>
     </g>
    </g>
    <g id="ytick_2">
     <g id="line2d_9">
      <path d="M 42.159844 437.197427 
L 849.214844 437.197427 
" clip-path="url(#paaefc10fa9)" style="fill: none; stroke: #e9ecef; stroke-opacity: 0.3; stroke-linecap: round"/>
     </g>
     <g id="line2d_10"/>
     <g id="text_6">
      <!-- 0.1 -->
      <g style="fill: #262626" transform="translate(21.259844 440.776333) scale(0.1 -0.1)">
       <use xlink:href="#ArialMT-30"/>
       <use xlink:href="#ArialMT-2e" transform="translate(55.615234 0)"/>
       <use xlink:href="#ArialMT-31" transform="translate(83.398438 0)"/>
      </g>
     </g>
    </g>
    <g id="ytick_3">
     <g id="line2d_11">
      <path d="M 42.159844 343.555479 
L 849.214844 343.555479 
" clip-path="url(#paaefc10fa9)" style="fill: none; stroke: #e9ecef; stroke-opacity: 0.3; stroke-linecap: round"/>
     </g>
     <g id="line2d_12"/>
     <g id="text_7">
      <!-- 0.2 -->
      <g style="fill: #262626" transform="translate(21.259844 347.134385) scale(0.1 -0.1)">
       <use xlink:href="#ArialMT-30"/>
       <use xlink:href="#ArialMT-2e" transform="translate(55.615234 0)"/>
       <use xlink:href="#ArialMT-32" transform="translate(83.398438 0)"/>
      </g>
     </g>
    </g>
    <g id="ytick_4">
     <g id="line2d_13">
      <path d="M 42.159844 249.913531 
L 849.214844 249.913531 
" clip-path="url(#paaefc10fa9)" style="fill: none; stroke: #e9ecef; stroke-opacity: 0.3; stroke-linecap: round"/>
     </g>
     <g id="line2d_14"/>
     <g id="text_8">
      <!-- 0.3 -->
      <g style="fill: #262626" transform="translate(21.259844 253.492438) scale(0.1 -0.1)">
       <use xlink:href="#ArialMT-30"/>
       <use xlink:href="#ArialMT-2e" transform="translate(55.615234 0)"/>
       <use xlink:href="#ArialMT-33" transform="translate(83.398438 0)"/>
      </g>
     </g>
    </g>
    <g id="ytick_5">
     <g id="line2d_15">
      <path d="M 42.159844 156.271583 
L 849.214844 156.271583 
" clip-path="url(#paaefc10fa9)" style="fill: none; stroke: #e9ecef; stroke-opacity: 0.3; stroke-linecap: round"/>
     </g>
     <g id="line2d_16"/>
     <g id="text_9">
      <!-- 0.4 -->
      <g style="fill: #262626" transform="translate(21.259844 159.85049) scale(0.1 -0.1)">
       <defs>
        <path id="ArialMT-34" d="M 2069 0 
L 2069 1097 
L 81 1097 
L 81 1613 
L 2172 4581 
L 2631 4581 
L 2631 1613 
L 3250 1613 
L 3250 1097 
L 2631 1097 
L 2631 0 
L 2069 0 
z
M 2069 1613 
L 2069 3678 
L 634 1613 
L 2069 1613 
z
" transform="scale(0.015625)"/>
       </defs>
       <use xlink:href="#ArialMT-30"/>
       <use xlink:href="#ArialMT-2e" transform="translate(55.615234 0)"/>
       <use xlink:href="#ArialMT-34" transform="translate(83.398438 0)"/>
      </g>
     </g>
    </g>
    <g id="ytick_6">
     <g id="line2d_17">
      <path d="M 42.159844 62.629636 
L 849.214844 62.629636 
" clip-path="url(#paaefc10fa9)" style="fill: none; stroke: #e9ecef; stroke-opacity: 0.3; stroke-linecap: round"/>
     </g>
     <g id="line2d_18"/>
     <g id="text_10">
      <!-- 0.5 -->
      <g style="fill: #262626" transform="translate(21.259844 66.208542) scale(0.1 -0.1)">
       <defs>
        <path id="ArialMT-35" d="M 266 1200 
L 856 1250 
Q 922 819 1161 601 
Q 1400 384 1738 384 
Q 2144 384 2425 690 
Q 2706 997 2706 1503 
Q 2706 1984 2436 2262 
Q 2166 2541 1728 2541 
Q 1456 2541 1237 2417 
Q 1019 2294 894 2097 
L 366 2166 
L 809 4519 
L 3088 4519 
L 3088 3981 
L 1259 3981 
L 1013 2750 
Q 1425 3038 1878 3038 
Q 2478 3038 2890 2622 
Q 3303 2206 3303 1553 
Q 3303 931 2941 478 
Q 2500 -78 1738 -78 
Q 1113 -78 717 272 
Q 322 622 266 1200 
z
" transform="scale(0.015625)"/>
       </defs>
       <use xlink:href="#ArialMT-30"/>
       <use xlink:href="#ArialMT-2e" transform="translate(55.615234 0)"/>
       <use xlink:href="#ArialMT-35" transform="translate(83.398438 0)"/>
      </g>
     </g>
    </g>
    <g id="text_11">
     <!-- Rate -->
     <g style="fill: #262626" transform="translate(15.073594 288.004531) rotate(-90) scale(0.11 -0.11)">
      <defs>
       <path id="ArialMT-52" d="M 503 0 
L 503 4581 
L 2534 4581 
Q 3147 4581 3465 4457 
Q 3784 4334 3975 4021 
Q 4166 3709 4166 3331 
Q 4166 2844 3850 2509 
Q 3534 2175 2875 2084 
Q 3116 1969 3241 1856 
Q 3506 1613 3744 1247 
L 4541 0 
L 3778 0 
L 3172 953 
Q 2906 1366 2734 1584 
Q 2563 1803 2427 1890 
Q 2291 1978 2150 2013 
Q 2047 2034 1813 2034 
L 1109 2034 
L 1109 0 
L 503 0 
z
M 1109 2559 
L 2413 2559 
Q 2828 2559 3062 2645 
Q 3297 2731 3419 2920 
Q 3541 3109 3541 3331 
Q 3541 3656 3305 3865 
Q 3069 4075 2559 4075 
L 1109 4075 
L 1109 2559 
z
" transform="scale(0.015625)"/>
       <path id="ArialMT-61" d="M 2588 409 
Q 2275 144 1986 34 
Q 1697 -75 1366 -75 
Q 819 -75 525 192 
Q 231 459 231 875 
Q 231 1119 342 1320 
Q 453 1522 633 1644 
Q 813 1766 1038 1828 
Q 1203 1872 1538 1913 
Q 2219 1994 2541 2106 
Q 2544 2222 2544 2253 
Q 2544 2597 2384 2738 
Q 2169 2928 1744 2928 
Q 1347 2928 1158 2789 
Q 969 2650 878 2297 
L 328 2372 
Q 403 2725 575 2942 
Q 747 3159 1072 3276 
Q 1397 3394 1825 3394 
Q 2250 3394 2515 3294 
Q 2781 3194 2906 3042 
Q 3031 2891 3081 2659 
Q 3109 2516 3109 2141 
L 3109 1391 
Q 3109 606 3145 398 
Q 3181 191 3288 0 
L 2700 0 
Q 2613 175 2588 409 
z
M 2541 1666 
Q 2234 1541 1622 1453 
Q 1275 1403 1131 1340 
Q 988 1278 909 1158 
Q 831 1038 831 891 
Q 831 666 1001 516 
Q 1172 366 1500 366 
Q 1825 366 2078 508 
Q 2331 650 2450 897 
Q 2541 1088 2541 1459 
L 2541 1666 
z
" transform="scale(0.015625)"/>
       <path id="ArialMT-74" d="M 1650 503 
L 1731 6 
Q 1494 -44 1306 -44 
Q 1000 -44 831 53 
Q 663 150 594 308 
Q 525 466 525 972 
L 525 2881 
L 113 2881 
L 113 3319 
L 525 3319 
L 525 4141 
L 1084 4478 
L 1084 3319 
L 1650 3319 
L 1650 2881 
L 1084 2881 
L 1084 941 
Q 1084 700 1114 631 
Q 1144 563 1211 522 
Q 1278 481 1403 481 
Q 1497 481 1650 503 
z
" transform="scale(0.015625)"/>
       <path id="ArialMT-65" d="M 2694 1069 
L 3275 997 
Q 3138 488 2766 206 
Q 2394 -75 1816 -75 
Q 1088 -75 661 373 
Q 234 822 234 1631 
Q 234 2469 665 2931 
Q 1097 3394 1784 3394 
Q 2450 3394 2872 2941 
Q 3294 2488 3294 1666 
Q 3294 1616 3291 1516 
L 816 1516 
Q 847 969 1125 678 
Q 1403 388 1819 388 
Q 2128 388 2347 550 
Q 2566 713 2694 1069 
z
M 847 1978 
L 2700 1978 
Q 2663 2397 2488 2606 
Q 2219 2931 1791 2931 
Q 1403 2931 1139 2672 
Q 875 2413 847 1978 
z
" transform="scale(0.015625)"/>
      </defs>
      <use xlink:href="#ArialMT-52"/>
      <use xlink:href="#ArialMT-61" transform="translate(72.216797 0)"/>
      <use xlink:href="#ArialMT-74" transform="translate(127.832031 0)"/>
      <use xlink:href="#ArialMT-65" transform="translate(155.615234 0)"/>
     </g>
    </g>
   </g>
   <g id="patch_3">
    <path d="M 109.414427 530.839375 
L 176.66901 530.839375 
L 176.66901 46.169137 
L 109.414427 46.169137 
z
" clip-path="url(#paaefc10fa9)" style="fill: #1f77b4; opacity: 0.7"/>
   </g>
   <g id="patch_4">
    <path d="M 378.43276 530.839375 
L 445.687344 530.839375 
L 445.687344 60.343455 
L 378.43276 60.343455 
z
" clip-path="url(#paaefc10fa9)" style="fill: #1f77b4; opacity: 0.7"/>
   </g>
   <g id="patch_5">
    <path d="M 647.451094 530.839375 
L 714.705677 530.839375 
L 714.705677 66.287524 
L 647.451094 66.287524 
z
" clip-path="url(#paaefc10fa9)" style="fill: #1f77b4; opacity: 0.7"/>
   </g>
   <g id="patch_6">
    <path d="M 176.66901 530.839375 
L 243.923594 530.839375 
L 243.923594 79.090134 
L 176.66901 79.090134 
z
" clip-path="url(#paaefc10fa9)" style="fill: #ff7f0e; opacity: 0.7"/>
   </g>
   <g id="patch_7">
    <path d="M 445.687344 530.839375 
L 512.941927 530.839375 
L 512.941927 64.915816 
L 445.687344 64.915816 
z
" clip-path="url(#paaefc10fa9)" style="fill: #ff7f0e; opacity: 0.7"/>
   </g>
   <g id="patch_8">
    <path d="M 714.705677 530.839375 
L 781.96026 530.839375 
L 781.96026 58.971747 
L 714.705677 58.971747 
z
" clip-path="url(#paaefc10fa9)" style="fill: #ff7f0e; opacity: 0.7"/>
   </g>
   <g id="patch_9">
    <path d="M 42.159844 530.839375 
L 42.159844 21.935625 
" style="fill: none"/>
   </g>
   <g id="patch_10">
    <path d="M 849.214844 530.839375 
L 849.214844 21.935625 
" style="fill: none"/>
   </g>
   <g id="patch_11">
    <path d="M 42.159844 530.839375 
L 849.214844 530.839375 
" style="fill: none"/>
   </g>
   <g id="patch_12">
    <path d="M 42.159844 21.935625 
L 849.214844 21.935625 
" style="fill: none"/>
   </g>
   <g id="text_12">
    <!-- Success vs Error Rates by Job -->
    <g style="fill: #212529" transform="translate(363.662656 15.935625) scale(0.12 -0.12)">
     <defs>
      <path id="ArialMT-53" d="M 288 1472 
L 859 1522 
Q 900 1178 1048 958 
Q 1197 738 1509 602 
Q 1822 466 2213 466 
Q 2559 466 2825 569 
Q 3091 672 3220 851 
Q 3350 1031 3350 1244 
Q 3350 1459 3225 1620 
Q 3100 1781 2813 1891 
Q 2628 1963 1997 2114 
Q 1366 2266 1113 2400 
Q 784 2572 623 2826 
Q 463 3081 463 3397 
Q 463 3744 659 4045 
Q 856 4347 1234 4503 
Q 1613 4659 2075 4659 
Q 2584 4659 2973 4495 
Q 3363 4331 3572 4012 
Q 3781 3694 3797 3291 
L 3216 3247 
Q 3169 3681 2898 3903 
Q 2628 4125 2100 4125 
Q 1550 4125 1298 3923 
Q 1047 3722 1047 3438 
Q 1047 3191 1225 3031 
Q 1400 2872 2139 2705 
Q 2878 2538 3153 2413 
Q 3553 2228 3743 1945 
Q 3934 1663 3934 1294 
Q 3934 928 3725 604 
Q 3516 281 3123 101 
Q 2731 -78 2241 -78 
Q 1619 -78 1198 103 
Q 778 284 539 648 
Q 300 1013 288 1472 
z
" transform="scale(0.015625)"/>
      <path id="ArialMT-75" d="M 2597 0 
L 2597 488 
Q 2209 -75 1544 -75 
Q 1250 -75 995 37 
Q 741 150 617 320 
Q 494 491 444 738 
Q 409 903 409 1263 
L 409 3319 
L 972 3319 
L 972 1478 
Q 972 1038 1006 884 
Q 1059 663 1231 536 
Q 1403 409 1656 409 
Q 1909 409 2131 539 
Q 2353 669 2445 892 
Q 2538 1116 2538 1541 
L 2538 3319 
L 3100 3319 
L 3100 0 
L 2597 0 
z
" transform="scale(0.015625)"/>
      <path id="ArialMT-63" d="M 2588 1216 
L 3141 1144 
Q 3050 572 2676 248 
Q 2303 -75 1759 -75 
Q 1078 -75 664 370 
Q 250 816 250 1647 
Q 250 2184 428 2587 
Q 606 2991 970 3192 
Q 1334 3394 1763 3394 
Q 2303 3394 2647 3120 
Q 2991 2847 3088 2344 
L 2541 2259 
Q 2463 2594 2264 2762 
Q 2066 2931 1784 2931 
Q 1359 2931 1093 2626 
Q 828 2322 828 1663 
Q 828 994 1084 691 
Q 1341 388 1753 388 
Q 2084 388 2306 591 
Q 2528 794 2588 1216 
z
" transform="scale(0.015625)"/>
      <path id="ArialMT-76" d="M 1344 0 
L 81 3319 
L 675 3319 
L 1388 1331 
Q 1503 1009 1600 663 
Q 1675 925 1809 1294 
L 2547 3319 
L 3125 3319 
L 1869 0 
L 1344 0 
z
" transform="scale(0.015625)"/>
      <path id="ArialMT-45" d="M 506 0 
L 506 4581 
L 3819 4581 
L 3819 4041 
L 1113 4041 
L 1113 2638 
L 3647 2638 
L 3647 2100 
L 1113 2100 
L 1113 541 
L 3925 541 
L 3925 0 
L 506 0 
z
" transform="scale(0.015625)"/>
      <path id="ArialMT-72" d="M 416 0 
L 416 3319 
L 922 3319 
L 922 2816 
Q 1116 3169 1280 3281 
Q 1444 3394 1641 3394 
Q 1925 3394 2219 3213 
L 2025 2691 
Q 1819 2813 1613 2813 
Q 1428 2813 1281 2702 
Q 1134 2591 1072 2394 
Q 978 2094 978 1738 
L 978 0 
L 416 0 
z
" transform="scale(0.015625)"/>
      <path id="ArialMT-79" d="M 397 -1278 
L 334 -750 
Q 519 -800 656 -800 
Q 844 -800 956 -737 
Q 1069 -675 1141 -563 
Q 1194 -478 1313 -144 
Q 1328 -97 1363 -6 
L 103 3319 
L 709 3319 
L 1400 1397 
Q 1534 1031 1641 628 
Q 1738 1016 1872 1384 
L 2581 3319 
L 3144 3319 
L 1881 -56 
Q 1678 -603 1566 -809 
Q 1416 -1088 1222 -1217 
Q 1028 -1347 759 -1347 
Q 597 -1347 397 -1278 
z
" transform="scale(0.015625)"/>
     </defs>
     <use xlink:href="#ArialMT-53"/>
     <use xlink:href="#ArialMT-75" transform="translate(66.699219 0)"/>
     <use xlink:href="#ArialMT-63" transform="translate(122.314453 0)"/>
     <use xlink:href="#ArialMT-63" transform="translate(172.314453 0)"/>
     <use xlink:href="#ArialMT-65" transform="translate(222.314453 0)"/>
     <use xlink:href="#ArialMT-73" transform="translate(277.929688 0)"/>
     <use xlink:href="#ArialMT-73" transform="translate(327.929688 0)"/>
     <use xlink:href="#ArialMT-20" transform="translate(377.929688 0)"/>
     <use xlink:href="#ArialMT-76" transform="translate(405.712891 0)"/>
     <use xlink:href="#ArialMT-73" transform="translate(455.712891 0)"/>
     <use xlink:href="#ArialMT-20" transform="translate(505.712891 0)"/>
     <use xlink:href="#ArialMT-45" transform="translate(533.496094 0)"/>
     <use xlink:href="#ArialMT-72" transform="translate(600.195312 0)"/>
     <use xlink:href="#ArialMT-72" transform="translate(633.496094 0)"/>
     <use xlink:href="#ArialMT-6f" transform="translate(666.796875 0)"/>
     <use xlink:href="#ArialMT-72" transform="translate(722.412109 0)"/>
     <use xlink:href="#ArialMT-20" transform="translate(755.712891 0)"/>
     <use xlink:href="#ArialMT-52" transform="translate(783.496094 0)"/>
     <use xlink:href="#ArialMT-61" transform="translate(855.712891 0)"/>
     <use xlink:href="#ArialMT-74" transform="translate(911.328125 0)"/>
     <use xlink:href="#ArialMT-65" transform="translate(939.111328 0)"/>
     <use xlink:href="#ArialMT-73" transform="translate(994.726562 0)"/>
     <use xlink:href="#ArialMT-20" transform="translate(1044.726562 0)"/>
     <use xlink:href="#ArialMT-62" transform="translate(1072.509766 0)"/>
     <use xlink:href="#ArialMT-79" transform="translate(1128.125 0)"/>
     <use xlink:href="#ArialMT-20" transform="translate(1178.125 0)"/>
     <use xlink:href="#ArialMT-4a" transform="translate(1205.908203 0)"/>
     <use xlink:href="#ArialMT-6f" transform="translate(1255.908203 0)"/>
     <use xlink:href="#ArialMT-62" transform="translate(1311.523438 0)"/>
    </g>
   </g>
   <g id="legend_1">
    <g id="patch_13">
     <path d="M 750.522656 38.093437 
L 770.522656 38.093437 
L 770.522656 31.093437 
L 750.522656 31.093437 
z
" style="fill: #1f77b4; opacity: 0.7"/>
    </g>
    <g id="text_13">
     <!-- Success Rate -->
     <g style="fill: #212529" transform="translate(778.522656 38.093437) scale(0.1 -0.1)">
      <use xlink:href="#ArialMT-53"/>
      <use xlink:href="#ArialMT-75" transform="translate(66.699219 0)"/>
      <use xlink:href="#ArialMT-63" transform="translate(122.314453 0)"/>
      <use xlink:href="#ArialMT-63" transform="translate(172.314453 0)"/>
      <use xlink:href="#ArialMT-65" transform="translate(222.314453 0)"/>
      <use xlink:href="#ArialMT-73" transform="translate(277.929688 0)"/>
      <use xlink:href="#ArialMT-73" transform="translate(327.929688 0)"/>
      <use xlink:href="#ArialMT-20" transform="translate(377.929688 0)"/>
      <use xlink:href="#ArialMT-52" transform="translate(405.712891 0)"/>
      <use xlink:href="#ArialMT-61" transform="translate(477.929688 0)"/>
      <use xlink:href="#ArialMT-74" transform="translate(533.544922 0)"/>
      <use xlink:href="#ArialMT-65" transform="translate(561.328125 0)"/>
     </g>
    </g>
    <g id="patch_14">
     <path d="M 750.522656 52.23875 
L 770.522656 52.23875 
L 770.522656 45.23875 
L 750.522656 45.23875 
z
" style="fill: #ff7f0e; opacity: 0.7"/>
    </g>
    <g id="text_14">
     <!-- Error Rate -->
     <g style="fill: #212529" transform="translate(778.522656 52.23875) scale(0.1 -0.1)">
      <use xlink:href="#ArialMT-45"/>
      <use xlink:href="#ArialMT-72" transform="translate(66.699219 0)"/>
      <use xlink:href="#ArialMT-72" transform="translate(100 0)"/>
      <use xlink:href="#ArialMT-6f" transform="translate(133.300781 0)"/>
      <use xlink:href="#ArialMT-72" transform="translate(188.916016 0)"/>
      <use xlink:href="#ArialMT-20" transform="translate(222.216797 0)"/>
      <use xlink:href="#ArialMT-52" transform="translate(250 0)"/>
      <use xlink:href="#ArialMT-61" transform="translate(322.216797 0)"/>
      <use xlink:href="#ArialMT-74" transform="translate(377.832031 0)"/>
      <use xlink:href="#ArialMT-65" transform="translate(405.615234 0)"/>
     </g>
    </g>
   </g>
  </g>
 </g>
 <defs>
  <clipPath id="paaefc10fa9">
   <rect x="42.159844" y="21.935625" width="807.055" height="508.90375"/>
  </clipPath>
 </defs>
</svg>
