<?xml version="1.0" encoding="UTF-8"?>
<svg xmlns="http://www.w3.org/2000/svg" xmlns:xlink="http://www.w3.org/1999/xlink" width="854" height="480" viewBox="0 0 854 480">
<defs>
<g>
<g id="glyph-0-0">
<path d="M 1.921875 -2.132812 C 1.921875 -2.40625 1.804688 -2.59375 1.570312 -2.691406 C 1.445312 -2.746094 1.285156 -2.777344 1.09375 -2.777344 C 1.003906 -2.777344 0.945312 -2.765625 0.925781 -2.75 C 0.90625 -2.730469 0.894531 -2.691406 0.894531 -2.628906 L 0.894531 -1.46875 C 0.972656 -1.460938 1.027344 -1.457031 1.050781 -1.457031 C 1.074219 -1.453125 1.097656 -1.453125 1.121094 -1.453125 C 1.324219 -1.453125 1.488281 -1.484375 1.605469 -1.539062 C 1.816406 -1.644531 1.921875 -1.84375 1.921875 -2.132812 Z M 0.0703125 -0.0820312 C 0.242188 -0.0976562 0.347656 -0.128906 0.386719 -0.179688 C 0.429688 -0.230469 0.453125 -0.351562 0.453125 -0.535156 L 0.453125 -2.457031 C 0.453125 -2.613281 0.429688 -2.714844 0.378906 -2.765625 C 0.332031 -2.8125 0.230469 -2.84375 0.0703125 -2.859375 L 0.0703125 -2.941406 L 1.242188 -2.941406 C 1.621094 -2.941406 1.90625 -2.867188 2.105469 -2.722656 C 2.304688 -2.574219 2.40625 -2.382812 2.40625 -2.144531 C 2.40625 -1.84375 2.296875 -1.621094 2.074219 -1.488281 C 1.851562 -1.351562 1.578125 -1.28125 1.242188 -1.28125 C 1.195312 -1.28125 1.132812 -1.285156 1.058594 -1.285156 C 0.984375 -1.289062 0.929688 -1.289062 0.894531 -1.289062 L 0.894531 -0.480469 C 0.894531 -0.3125 0.917969 -0.207031 0.972656 -0.164062 C 1.023438 -0.121094 1.136719 -0.09375 1.316406 -0.0820312 L 1.316406 0 L 0.0703125 0 Z "/>
</g>
<g id="glyph-0-1">
<path d="M 1.019531 -2.035156 C 1.222656 -2.035156 1.402344 -1.964844 1.554688 -1.824219 C 1.707031 -1.683594 1.785156 -1.484375 1.785156 -1.222656 L 0.40625 -1.222656 C 0.421875 -0.886719 0.496094 -0.644531 0.632812 -0.492188 C 0.769531 -0.335938 0.933594 -0.261719 1.121094 -0.261719 C 1.273438 -0.261719 1.402344 -0.300781 1.507812 -0.378906 C 1.609375 -0.460938 1.707031 -0.570312 1.792969 -0.71875 L 1.871094 -0.691406 C 1.8125 -0.507812 1.699219 -0.339844 1.539062 -0.183594 C 1.375 -0.0273438 1.175781 0.0507812 0.941406 0.0507812 C 0.667969 0.0507812 0.457031 -0.0507812 0.308594 -0.257812 C 0.160156 -0.460938 0.0859375 -0.699219 0.0859375 -0.964844 C 0.0859375 -1.257812 0.171875 -1.507812 0.34375 -1.71875 C 0.515625 -1.929688 0.742188 -2.035156 1.019531 -2.035156 Z M 0.890625 -1.878906 C 0.726562 -1.878906 0.601562 -1.804688 0.515625 -1.65625 C 0.46875 -1.578125 0.433594 -1.480469 0.414062 -1.363281 L 1.332031 -1.363281 C 1.316406 -1.507812 1.285156 -1.617188 1.246094 -1.6875 C 1.175781 -1.8125 1.058594 -1.878906 0.890625 -1.878906 Z "/>
</g>
<g id="glyph-0-2">
<path d="M 0.0195312 -0.0703125 C 0.152344 -0.0820312 0.242188 -0.105469 0.285156 -0.140625 C 0.328125 -0.175781 0.347656 -0.253906 0.347656 -0.367188 L 0.347656 -1.347656 C 0.347656 -1.492188 0.335938 -1.59375 0.308594 -1.65625 C 0.28125 -1.714844 0.234375 -1.746094 0.164062 -1.746094 C 0.148438 -1.746094 0.128906 -1.746094 0.105469 -1.742188 C 0.0820312 -1.738281 0.0546875 -1.734375 0.03125 -1.726562 L 0.03125 -1.800781 C 0.113281 -1.828125 0.199219 -1.859375 0.285156 -1.886719 C 0.371094 -1.917969 0.429688 -1.941406 0.464844 -1.953125 C 0.535156 -1.980469 0.609375 -2.011719 0.6875 -2.046875 C 0.699219 -2.046875 0.703125 -2.042969 0.707031 -2.035156 C 0.707031 -2.027344 0.710938 -2.011719 0.710938 -1.988281 L 0.710938 -1.632812 C 0.800781 -1.761719 0.890625 -1.863281 0.976562 -1.9375 C 1.0625 -2.007812 1.152344 -2.042969 1.246094 -2.042969 C 1.320312 -2.042969 1.378906 -2.023438 1.425781 -1.976562 C 1.472656 -1.933594 1.496094 -1.878906 1.496094 -1.8125 C 1.496094 -1.753906 1.476562 -1.703125 1.441406 -1.664062 C 1.40625 -1.621094 1.363281 -1.601562 1.308594 -1.601562 C 1.253906 -1.601562 1.199219 -1.625 1.140625 -1.675781 C 1.085938 -1.726562 1.042969 -1.753906 1.011719 -1.753906 C 0.960938 -1.753906 0.898438 -1.710938 0.824219 -1.628906 C 0.75 -1.546875 0.714844 -1.464844 0.714844 -1.378906 L 0.714844 -0.398438 C 0.714844 -0.273438 0.742188 -0.1875 0.800781 -0.140625 C 0.859375 -0.0898438 0.953125 -0.0703125 1.089844 -0.0703125 L 1.089844 0 L 0.0195312 0 Z "/>
</g>
<g id="glyph-0-3">
<path d="M 0.0859375 -0.0625 C 0.238281 -0.0703125 0.339844 -0.0976562 0.390625 -0.144531 C 0.4375 -0.195312 0.460938 -0.300781 0.460938 -0.460938 L 0.460938 -1.855469 L 0.0898438 -1.855469 L 0.0898438 -2 L 0.460938 -2 C 0.460938 -2.230469 0.492188 -2.421875 0.554688 -2.582031 C 0.675781 -2.882812 0.890625 -3.035156 1.207031 -3.035156 C 1.335938 -3.035156 1.449219 -3.007812 1.550781 -2.957031 C 1.652344 -2.90625 1.703125 -2.839844 1.703125 -2.753906 C 1.703125 -2.707031 1.683594 -2.664062 1.648438 -2.625 C 1.613281 -2.589844 1.574219 -2.570312 1.523438 -2.570312 C 1.480469 -2.570312 1.445312 -2.582031 1.414062 -2.605469 C 1.382812 -2.632812 1.347656 -2.675781 1.304688 -2.742188 L 1.269531 -2.796875 C 1.25 -2.828125 1.226562 -2.851562 1.199219 -2.875 C 1.171875 -2.894531 1.132812 -2.90625 1.082031 -2.90625 C 0.972656 -2.90625 0.898438 -2.851562 0.859375 -2.742188 C 0.835938 -2.683594 0.828125 -2.609375 0.828125 -2.515625 L 0.828125 -2 L 1.371094 -2 L 1.371094 -1.855469 L 0.832031 -1.855469 L 0.832031 -0.460938 C 0.832031 -0.296875 0.851562 -0.195312 0.898438 -0.148438 C 0.941406 -0.101562 1.058594 -0.0742188 1.242188 -0.0625 L 1.242188 0 L 0.0859375 0 Z "/>
</g>
<g id="glyph-0-4">
<path d="M 1.105469 -2.046875 C 1.285156 -2.046875 1.441406 -2 1.570312 -1.90625 C 1.703125 -1.8125 1.769531 -1.710938 1.769531 -1.597656 C 1.769531 -1.550781 1.753906 -1.507812 1.71875 -1.464844 C 1.683594 -1.425781 1.632812 -1.402344 1.566406 -1.402344 C 1.515625 -1.402344 1.46875 -1.421875 1.429688 -1.457031 C 1.390625 -1.492188 1.363281 -1.542969 1.347656 -1.609375 L 1.320312 -1.710938 C 1.300781 -1.789062 1.269531 -1.84375 1.222656 -1.875 C 1.175781 -1.90625 1.113281 -1.921875 1.035156 -1.921875 C 0.871094 -1.921875 0.730469 -1.847656 0.617188 -1.703125 C 0.503906 -1.558594 0.445312 -1.371094 0.445312 -1.128906 C 0.445312 -0.910156 0.507812 -0.714844 0.632812 -0.542969 C 0.757812 -0.367188 0.929688 -0.28125 1.140625 -0.28125 C 1.292969 -0.28125 1.425781 -0.332031 1.542969 -0.429688 C 1.609375 -0.484375 1.683594 -0.574219 1.769531 -0.699219 L 1.828125 -0.660156 C 1.746094 -0.488281 1.660156 -0.351562 1.570312 -0.25 C 1.394531 -0.0546875 1.191406 0.0429688 0.960938 0.0429688 C 0.734375 0.0429688 0.535156 -0.046875 0.363281 -0.226562 C 0.1875 -0.402344 0.101562 -0.644531 0.101562 -0.949219 C 0.101562 -1.25 0.195312 -1.507812 0.386719 -1.722656 C 0.574219 -1.9375 0.816406 -2.046875 1.105469 -2.046875 Z "/>
</g>
<g id="glyph-0-5">
<path d="M 1.128906 -2 L 1.128906 -1.84375 L 0.6875 -1.84375 L 0.683594 -0.59375 C 0.683594 -0.484375 0.691406 -0.402344 0.710938 -0.34375 C 0.746094 -0.246094 0.816406 -0.195312 0.914062 -0.195312 C 0.96875 -0.195312 1.011719 -0.207031 1.050781 -0.230469 C 1.089844 -0.257812 1.132812 -0.296875 1.183594 -0.347656 L 1.238281 -0.300781 L 1.191406 -0.238281 C 1.117188 -0.136719 1.035156 -0.0625 0.953125 -0.0234375 C 0.867188 0.0195312 0.789062 0.0429688 0.710938 0.0429688 C 0.539062 0.0429688 0.421875 -0.0351562 0.363281 -0.1875 C 0.328125 -0.269531 0.3125 -0.382812 0.3125 -0.53125 L 0.3125 -1.84375 L 0.0742188 -1.84375 C 0.0664062 -1.847656 0.0625 -1.851562 0.0585938 -1.859375 C 0.0546875 -1.863281 0.0546875 -1.867188 0.0546875 -1.875 C 0.0546875 -1.890625 0.0585938 -1.902344 0.0625 -1.910156 C 0.0703125 -1.917969 0.0898438 -1.933594 0.125 -1.964844 C 0.226562 -2.046875 0.296875 -2.113281 0.339844 -2.164062 C 0.386719 -2.214844 0.488281 -2.351562 0.652344 -2.570312 C 0.671875 -2.570312 0.683594 -2.570312 0.6875 -2.566406 C 0.691406 -2.5625 0.691406 -2.554688 0.691406 -2.535156 L 0.691406 -2 Z "/>
</g>
</g>
</defs>
<g fill="rgb(51.372549%, 75.686275%, 40.392157%)" fill-opacity="1">
<use xlink:href="#glyph-0-0" x="30" y="23.333008"/>
<use xlink:href="#glyph-0-1" x="32" y="23.333008"/>
<use xlink:href="#glyph-0-2" x="34" y="23.333008"/>
<use xlink:href="#glyph-0-3" x="35" y="23.333008"/>
<use xlink:href="#glyph-0-1" x="36" y="23.333008"/>
<use xlink:href="#glyph-0-4" x="38" y="23.333008"/>
<use xlink:href="#glyph-0-5" x="40" y="23.333008"/>
</g>
</svg>
