<?xml version="1.0" encoding="UTF-8"?>
<svg xmlns="http://www.w3.org/2000/svg" xmlns:xlink="http://www.w3.org/1999/xlink" width="854" height="480" viewBox="0 0 854 480">
<defs>
<g>
<g id="glyph-0-0">
<path d="M 2.386719 -5.074219 L 2.386719 -4.949219 C 2.144531 -4.9375 1.992188 -4.898438 1.925781 -4.835938 C 1.859375 -4.773438 1.828125 -4.65625 1.828125 -4.492188 C 1.828125 -4.46875 1.828125 -4.445312 1.828125 -4.421875 C 1.828125 -4.402344 1.832031 -4.375 1.835938 -4.34375 L 2.15625 -1.296875 L 2.1875 -1.296875 L 3.507812 -3.96875 L 3.4375 -4.5 C 3.410156 -4.695312 3.359375 -4.816406 3.285156 -4.867188 C 3.214844 -4.917969 3.070312 -4.941406 2.851562 -4.949219 L 2.851562 -5.074219 L 4.707031 -5.074219 L 4.707031 -4.949219 C 4.527344 -4.929688 4.40625 -4.902344 4.339844 -4.867188 C 4.230469 -4.808594 4.171875 -4.699219 4.171875 -4.542969 C 4.171875 -4.523438 4.175781 -4.492188 4.179688 -4.449219 C 4.183594 -4.40625 4.285156 -3.351562 4.488281 -1.296875 L 4.515625 -1.296875 L 5.945312 -4.121094 C 5.984375 -4.195312 6.019531 -4.265625 6.046875 -4.332031 C 6.089844 -4.449219 6.109375 -4.546875 6.109375 -4.625 C 6.109375 -4.761719 6.058594 -4.851562 5.953125 -4.898438 C 5.890625 -4.925781 5.773438 -4.941406 5.605469 -4.949219 L 5.605469 -5.074219 L 7.046875 -5.074219 L 7.046875 -4.949219 C 6.914062 -4.914062 6.816406 -4.871094 6.757812 -4.824219 C 6.671875 -4.746094 6.570312 -4.601562 6.460938 -4.390625 L 4.101562 0.144531 L 3.949219 0.144531 L 3.5625 -3.390625 L 3.515625 -3.390625 L 1.800781 0.144531 L 1.644531 0.144531 L 1.167969 -3.878906 C 1.109375 -4.394531 1.050781 -4.699219 1 -4.789062 C 0.945312 -4.882812 0.796875 -4.933594 0.546875 -4.949219 L 0.546875 -5.074219 Z "/>
</g>
<g id="glyph-0-1">
<path d="M 0.242188 -1.007812 C 0.242188 -1.570312 0.496094 -2.113281 1.003906 -2.640625 C 1.503906 -3.167969 2.023438 -3.429688 2.554688 -3.429688 C 2.753906 -3.429688 2.910156 -3.382812 3.027344 -3.292969 C 3.144531 -3.203125 3.203125 -3.066406 3.203125 -2.886719 C 3.203125 -2.523438 2.988281 -2.210938 2.5625 -1.949219 C 2.136719 -1.691406 1.6875 -1.53125 1.214844 -1.472656 L 1 -1.445312 C 0.964844 -1.34375 0.941406 -1.261719 0.929688 -1.199219 C 0.917969 -1.136719 0.910156 -1.058594 0.910156 -0.964844 C 0.910156 -0.742188 0.984375 -0.570312 1.128906 -0.445312 C 1.273438 -0.320312 1.449219 -0.257812 1.648438 -0.257812 C 1.839844 -0.257812 2.039062 -0.320312 2.25 -0.449219 C 2.371094 -0.523438 2.550781 -0.652344 2.78125 -0.84375 L 2.878906 -0.753906 C 2.765625 -0.609375 2.601562 -0.464844 2.386719 -0.3125 C 2.011719 -0.0390625 1.632812 0.09375 1.253906 0.09375 C 0.984375 0.09375 0.75 0 0.546875 -0.191406 C 0.34375 -0.378906 0.242188 -0.652344 0.242188 -1.007812 Z M 1.050781 -1.617188 C 1.535156 -1.6875 1.929688 -1.859375 2.234375 -2.128906 C 2.539062 -2.398438 2.6875 -2.664062 2.6875 -2.933594 C 2.6875 -3.027344 2.664062 -3.105469 2.621094 -3.160156 C 2.574219 -3.21875 2.507812 -3.246094 2.417969 -3.246094 C 2.253906 -3.246094 2.09375 -3.175781 1.933594 -3.035156 C 1.777344 -2.894531 1.632812 -2.738281 1.507812 -2.558594 C 1.375 -2.351562 1.265625 -2.152344 1.1875 -1.964844 C 1.144531 -1.863281 1.101562 -1.746094 1.050781 -1.617188 Z "/>
</g>
<g id="glyph-0-2">
<rect x="0" y="0" width="0" height="0" mask="url(#mask-0)"/>
</g>
<g id="glyph-0-3">
<path d="M 0.140625 0 L 0.796875 -2.347656 C 0.851562 -2.542969 0.886719 -2.664062 0.894531 -2.707031 C 0.902344 -2.746094 0.90625 -2.792969 0.90625 -2.839844 C 0.90625 -2.914062 0.886719 -2.972656 0.84375 -3.011719 C 0.804688 -3.054688 0.722656 -3.074219 0.601562 -3.074219 C 0.570312 -3.074219 0.539062 -3.074219 0.511719 -3.070312 C 0.480469 -3.066406 0.449219 -3.0625 0.414062 -3.058594 L 0.414062 -3.1875 C 0.578125 -3.210938 0.695312 -3.230469 0.765625 -3.242188 C 0.835938 -3.253906 0.910156 -3.269531 0.992188 -3.289062 L 1.671875 -3.4375 C 1.6875 -3.425781 1.695312 -3.414062 1.703125 -3.402344 L 1.195312 -1.769531 C 1.503906 -2.242188 1.761719 -2.59375 1.972656 -2.824219 C 2.335938 -3.234375 2.660156 -3.4375 2.949219 -3.4375 C 3.0625 -3.4375 3.160156 -3.414062 3.238281 -3.371094 C 3.394531 -3.289062 3.472656 -3.136719 3.472656 -2.921875 C 3.472656 -2.859375 3.464844 -2.796875 3.453125 -2.730469 C 3.441406 -2.664062 3.421875 -2.59375 3.402344 -2.519531 L 2.90625 -0.699219 C 2.894531 -0.660156 2.882812 -0.613281 2.871094 -0.558594 C 2.859375 -0.503906 2.851562 -0.46875 2.851562 -0.445312 C 2.851562 -0.40625 2.859375 -0.371094 2.878906 -0.339844 C 2.894531 -0.3125 2.925781 -0.296875 2.964844 -0.296875 C 3.03125 -0.296875 3.109375 -0.335938 3.195312 -0.410156 C 3.28125 -0.488281 3.421875 -0.65625 3.617188 -0.90625 L 3.726562 -0.808594 C 3.519531 -0.527344 3.351562 -0.332031 3.230469 -0.214844 C 3.023438 -0.015625 2.824219 0.0820312 2.636719 0.0820312 C 2.550781 0.0820312 2.464844 0.0546875 2.386719 0 C 2.308594 -0.0585938 2.265625 -0.160156 2.265625 -0.3125 C 2.265625 -0.355469 2.269531 -0.398438 2.277344 -0.449219 C 2.28125 -0.496094 2.292969 -0.539062 2.300781 -0.574219 L 2.78125 -2.417969 C 2.804688 -2.519531 2.820312 -2.601562 2.832031 -2.667969 C 2.839844 -2.730469 2.84375 -2.777344 2.84375 -2.804688 C 2.84375 -2.867188 2.828125 -2.917969 2.800781 -2.964844 C 2.773438 -3.007812 2.71875 -3.03125 2.648438 -3.03125 C 2.457031 -3.03125 2.21875 -2.859375 1.929688 -2.515625 C 1.757812 -2.308594 1.585938 -2.066406 1.414062 -1.78125 C 1.277344 -1.5625 1.171875 -1.347656 1.09375 -1.136719 C 1.019531 -0.929688 0.894531 -0.550781 0.730469 0 Z "/>
</g>
<g id="glyph-0-4">
<path d="M 0.789062 -0.882812 C 0.789062 -0.726562 0.824219 -0.589844 0.894531 -0.476562 C 0.964844 -0.363281 1.085938 -0.304688 1.257812 -0.304688 C 1.621094 -0.304688 1.96875 -0.59375 2.300781 -1.175781 C 2.613281 -1.722656 2.773438 -2.242188 2.773438 -2.730469 C 2.773438 -2.886719 2.746094 -3.011719 2.695312 -3.113281 C 2.644531 -3.214844 2.542969 -3.265625 2.386719 -3.265625 C 2.003906 -3.265625 1.632812 -2.953125 1.273438 -2.332031 C 0.949219 -1.773438 0.789062 -1.292969 0.789062 -0.882812 Z M 2.347656 -3.445312 C 2.546875 -3.445312 2.6875 -3.394531 2.773438 -3.300781 C 2.820312 -3.246094 2.859375 -3.148438 2.886719 -3.015625 L 3.320312 -4.570312 C 3.332031 -4.613281 3.339844 -4.652344 3.34375 -4.6875 C 3.347656 -4.722656 3.347656 -4.753906 3.347656 -4.777344 C 3.347656 -4.875 3.332031 -4.9375 3.292969 -4.964844 C 3.257812 -4.988281 3.207031 -5 3.136719 -5 C 3.09375 -5 3.054688 -5 3.015625 -4.996094 C 2.980469 -4.996094 2.933594 -4.992188 2.871094 -4.984375 L 2.871094 -5.113281 C 3.15625 -5.148438 3.554688 -5.214844 4.058594 -5.308594 L 4.09375 -5.269531 L 4.085938 -5.230469 L 3.355469 -2.5 L 2.859375 -0.691406 C 2.847656 -0.652344 2.839844 -0.613281 2.835938 -0.578125 C 2.828125 -0.542969 2.824219 -0.515625 2.824219 -0.484375 C 2.824219 -0.417969 2.84375 -0.375 2.875 -0.351562 C 2.910156 -0.332031 2.941406 -0.324219 2.964844 -0.324219 C 3.039062 -0.324219 3.144531 -0.386719 3.277344 -0.515625 C 3.355469 -0.59375 3.464844 -0.714844 3.601562 -0.882812 L 3.6875 -0.796875 L 3.632812 -0.71875 C 3.539062 -0.578125 3.421875 -0.4375 3.273438 -0.292969 C 3.011719 -0.0351562 2.777344 0.0898438 2.570312 0.0898438 C 2.503906 0.0898438 2.441406 0.0742188 2.386719 0.046875 C 2.28125 -0.015625 2.230469 -0.125 2.230469 -0.28125 C 2.230469 -0.335938 2.238281 -0.417969 2.25 -0.535156 C 2.265625 -0.652344 2.289062 -0.777344 2.320312 -0.914062 C 2.128906 -0.621094 1.917969 -0.382812 1.6875 -0.195312 C 1.457031 -0.0078125 1.207031 0.0859375 0.9375 0.0859375 C 0.71875 0.0859375 0.523438 0.0078125 0.359375 -0.148438 C 0.195312 -0.304688 0.113281 -0.546875 0.113281 -0.875 C 0.113281 -1.425781 0.367188 -1.992188 0.875 -2.574219 C 1.378906 -3.15625 1.867188 -3.445312 2.347656 -3.445312 Z "/>
</g>
<g id="glyph-0-5">
<path d="M 2.832031 -2.742188 C 2.832031 -2.925781 2.792969 -3.058594 2.707031 -3.144531 C 2.625 -3.230469 2.523438 -3.273438 2.402344 -3.273438 C 1.992188 -3.273438 1.609375 -2.957031 1.253906 -2.324219 C 0.941406 -1.765625 0.785156 -1.289062 0.785156 -0.886719 C 0.785156 -0.683594 0.828125 -0.535156 0.917969 -0.441406 C 1.003906 -0.351562 1.113281 -0.304688 1.242188 -0.304688 C 1.625 -0.304688 1.992188 -0.613281 2.347656 -1.226562 C 2.671875 -1.785156 2.832031 -2.292969 2.832031 -2.742188 Z M 2.359375 -3.445312 C 2.558594 -3.445312 2.710938 -3.390625 2.820312 -3.289062 C 2.878906 -3.234375 2.925781 -3.160156 2.957031 -3.070312 L 2.976562 -3.015625 L 3.0625 -3.304688 C 3.070312 -3.335938 3.078125 -3.359375 3.085938 -3.371094 C 3.09375 -3.382812 3.113281 -3.386719 3.140625 -3.390625 L 3.570312 -3.441406 C 3.59375 -3.441406 3.605469 -3.4375 3.609375 -3.425781 C 3.613281 -3.417969 3.613281 -3.402344 3.609375 -3.378906 C 3.597656 -3.347656 3.589844 -3.320312 3.585938 -3.300781 C 3.582031 -3.28125 3.570312 -3.253906 3.5625 -3.21875 L 3.210938 -1.859375 C 3.136719 -1.5625 3.070312 -1.308594 3.019531 -1.09375 C 2.925781 -0.703125 2.878906 -0.480469 2.878906 -0.425781 C 2.878906 -0.390625 2.886719 -0.363281 2.90625 -0.347656 C 2.925781 -0.332031 2.949219 -0.324219 2.976562 -0.324219 C 3 -0.324219 3.023438 -0.332031 3.050781 -0.34375 C 3.078125 -0.359375 3.109375 -0.382812 3.148438 -0.414062 L 3.210938 -0.46875 C 3.230469 -0.484375 3.253906 -0.503906 3.28125 -0.53125 C 3.304688 -0.554688 3.335938 -0.582031 3.371094 -0.617188 L 3.609375 -0.863281 L 3.699219 -0.78125 C 3.4375 -0.445312 3.222656 -0.21875 3.066406 -0.0976562 C 2.90625 0.0234375 2.753906 0.0820312 2.609375 0.0820312 C 2.515625 0.0820312 2.441406 0.0507812 2.390625 -0.015625 C 2.339844 -0.0820312 2.3125 -0.164062 2.3125 -0.261719 C 2.3125 -0.351562 2.328125 -0.484375 2.363281 -0.65625 C 2.398438 -0.828125 2.433594 -0.96875 2.464844 -1.085938 C 2.417969 -1.011719 2.34375 -0.898438 2.234375 -0.753906 C 2.128906 -0.609375 1.996094 -0.46875 1.839844 -0.332031 C 1.652344 -0.167969 1.476562 -0.0507812 1.304688 0.0195312 C 1.175781 0.0664062 1.046875 0.0859375 0.925781 0.0859375 C 0.722656 0.0859375 0.535156 0.00390625 0.367188 -0.164062 C 0.199219 -0.332031 0.117188 -0.570312 0.117188 -0.882812 C 0.117188 -1.414062 0.355469 -1.96875 0.832031 -2.542969 C 1.324219 -3.144531 1.832031 -3.445312 2.359375 -3.445312 Z "/>
</g>
<g id="glyph-0-6">
<path d="M 2.429688 -3.429688 C 2.738281 -3.429688 2.960938 -3.359375 3.097656 -3.21875 C 3.234375 -3.082031 3.304688 -2.945312 3.304688 -2.8125 C 3.304688 -2.695312 3.269531 -2.601562 3.199219 -2.535156 C 3.128906 -2.46875 3.042969 -2.4375 2.945312 -2.4375 C 2.851562 -2.4375 2.773438 -2.46875 2.710938 -2.523438 C 2.648438 -2.582031 2.617188 -2.65625 2.617188 -2.742188 C 2.617188 -2.808594 2.636719 -2.878906 2.679688 -2.953125 C 2.722656 -3.03125 2.742188 -3.078125 2.742188 -3.101562 C 2.742188 -3.148438 2.714844 -3.1875 2.664062 -3.21875 C 2.613281 -3.25 2.527344 -3.265625 2.414062 -3.265625 C 2.007812 -3.265625 1.652344 -3.035156 1.355469 -2.570312 C 1.054688 -2.109375 0.902344 -1.621094 0.902344 -1.113281 C 0.902344 -0.828125 0.964844 -0.601562 1.085938 -0.441406 C 1.207031 -0.277344 1.390625 -0.199219 1.632812 -0.199219 C 1.828125 -0.199219 2.015625 -0.253906 2.199219 -0.367188 C 2.382812 -0.480469 2.554688 -0.621094 2.707031 -0.796875 L 2.734375 -0.828125 L 2.84375 -0.746094 C 2.667969 -0.519531 2.496094 -0.34375 2.332031 -0.222656 C 2.039062 -0.0117188 1.71875 0.0898438 1.363281 0.0898438 C 1.023438 0.0898438 0.75 -0.015625 0.539062 -0.234375 C 0.328125 -0.449219 0.222656 -0.746094 0.222656 -1.121094 C 0.222656 -1.695312 0.457031 -2.222656 0.925781 -2.707031 C 1.390625 -3.1875 1.890625 -3.429688 2.429688 -3.429688 Z "/>
</g>
<g id="glyph-0-7">
<path d="M 0.863281 -0.816406 C 0.863281 -0.605469 0.914062 -0.433594 1.019531 -0.292969 C 1.125 -0.15625 1.277344 -0.0859375 1.480469 -0.0859375 C 1.894531 -0.0859375 2.257812 -0.398438 2.578125 -1.023438 C 2.847656 -1.554688 2.984375 -2.046875 2.984375 -2.496094 C 2.984375 -2.683594 2.960938 -2.839844 2.917969 -2.953125 C 2.828125 -3.175781 2.664062 -3.285156 2.429688 -3.285156 C 2.042969 -3.285156 1.679688 -2.996094 1.339844 -2.414062 C 1.019531 -1.875 0.863281 -1.339844 0.863281 -0.816406 Z M 2.472656 -3.445312 C 2.898438 -3.445312 3.199219 -3.332031 3.371094 -3.105469 C 3.546875 -2.878906 3.632812 -2.609375 3.632812 -2.300781 C 3.632812 -1.765625 3.398438 -1.238281 2.925781 -0.722656 C 2.4375 -0.183594 1.914062 0.0820312 1.359375 0.0820312 C 1.011719 0.0820312 0.730469 -0.0195312 0.519531 -0.21875 C 0.308594 -0.421875 0.203125 -0.707031 0.203125 -1.074219 C 0.203125 -1.628906 0.441406 -2.160156 0.910156 -2.664062 C 1.390625 -3.183594 1.914062 -3.445312 2.472656 -3.445312 Z "/>
</g>
<g id="glyph-0-8">
<path d="M 0.292969 -0.25 C 0.292969 -0.269531 0.292969 -0.292969 0.296875 -0.320312 C 0.300781 -0.347656 0.304688 -0.375 0.3125 -0.402344 L 1.023438 -3.058594 L 0.449219 -3.058594 C 0.449219 -3.125 0.453125 -3.167969 0.464844 -3.1875 C 0.472656 -3.203125 0.5 -3.222656 0.539062 -3.238281 C 0.792969 -3.347656 0.992188 -3.453125 1.132812 -3.554688 C 1.273438 -3.65625 1.464844 -3.851562 1.707031 -4.140625 L 1.769531 -4.210938 C 1.777344 -4.222656 1.785156 -4.230469 1.796875 -4.234375 C 1.808594 -4.242188 1.820312 -4.246094 1.835938 -4.246094 C 1.859375 -4.242188 1.878906 -4.234375 1.886719 -4.230469 C 1.894531 -4.210938 1.898438 -4.195312 1.902344 -4.183594 C 1.902344 -4.167969 1.902344 -4.15625 1.898438 -4.140625 L 1.683594 -3.3125 L 2.300781 -3.3125 L 2.253906 -3.058594 L 1.609375 -3.058594 L 0.925781 -0.5 C 0.914062 -0.457031 0.917969 -0.410156 0.9375 -0.371094 C 0.957031 -0.328125 0.992188 -0.308594 1.039062 -0.308594 C 1.105469 -0.308594 1.199219 -0.375 1.316406 -0.503906 C 1.386719 -0.574219 1.5 -0.714844 1.664062 -0.925781 L 1.761719 -0.871094 L 1.707031 -0.789062 C 1.492188 -0.464844 1.300781 -0.234375 1.132812 -0.109375 C 0.96875 0.0195312 0.808594 0.0820312 0.660156 0.0820312 C 0.53125 0.0820312 0.4375 0.0507812 0.378906 -0.0195312 C 0.320312 -0.0859375 0.292969 -0.164062 0.292969 -0.25 Z "/>
</g>
<g id="glyph-0-9">
<path d="M 1.582031 -3.457031 C 1.605469 -3.457031 1.621094 -3.449219 1.632812 -3.433594 C 1.640625 -3.421875 1.644531 -3.40625 1.644531 -3.386719 C 1.640625 -3.363281 1.640625 -3.34375 1.636719 -3.332031 L 1.257812 -1.859375 L 1.339844 -2.023438 C 1.523438 -2.378906 1.734375 -2.707031 1.980469 -3 C 2.226562 -3.296875 2.457031 -3.445312 2.675781 -3.445312 C 2.796875 -3.445312 2.886719 -3.40625 2.953125 -3.328125 C 3.015625 -3.25 3.050781 -3.160156 3.050781 -3.058594 C 3.050781 -2.945312 3.015625 -2.847656 2.953125 -2.773438 C 2.886719 -2.699219 2.796875 -2.660156 2.683594 -2.660156 C 2.605469 -2.660156 2.546875 -2.675781 2.507812 -2.707031 C 2.464844 -2.738281 2.433594 -2.773438 2.410156 -2.8125 L 2.367188 -2.898438 C 2.355469 -2.914062 2.34375 -2.925781 2.328125 -2.933594 C 2.316406 -2.941406 2.296875 -2.945312 2.277344 -2.945312 C 2.179688 -2.945312 2.039062 -2.808594 1.851562 -2.53125 C 1.664062 -2.257812 1.5 -1.957031 1.351562 -1.636719 C 1.261719 -1.441406 1.164062 -1.183594 1.054688 -0.863281 C 0.988281 -0.660156 0.894531 -0.371094 0.78125 0 L 0.199219 0 L 0.828125 -2.285156 C 0.863281 -2.417969 0.890625 -2.535156 0.914062 -2.640625 C 0.933594 -2.742188 0.945312 -2.828125 0.945312 -2.894531 C 0.945312 -2.96875 0.925781 -3.027344 0.886719 -3.070312 C 0.851562 -3.109375 0.785156 -3.128906 0.691406 -3.128906 C 0.660156 -3.128906 0.621094 -3.125 0.578125 -3.121094 C 0.53125 -3.117188 0.476562 -3.109375 0.414062 -3.101562 L 0.414062 -3.226562 L 0.566406 -3.257812 C 0.761719 -3.296875 0.980469 -3.34375 1.214844 -3.386719 C 1.449219 -3.433594 1.570312 -3.457031 1.582031 -3.457031 Z "/>
</g>
<g id="glyph-0-10">
<path d="M 0.277344 -1.132812 L 0.402344 -1.132812 C 0.457031 -0.824219 0.523438 -0.601562 0.601562 -0.460938 C 0.738281 -0.199219 0.945312 -0.0664062 1.222656 -0.0664062 C 1.378906 -0.0664062 1.507812 -0.121094 1.613281 -0.230469 C 1.71875 -0.339844 1.769531 -0.484375 1.769531 -0.664062 C 1.769531 -0.777344 1.757812 -0.867188 1.730469 -0.9375 C 1.703125 -1.007812 1.667969 -1.074219 1.628906 -1.132812 L 1.3125 -1.597656 C 1.125 -1.882812 1.003906 -2.070312 0.957031 -2.167969 C 0.882812 -2.3125 0.847656 -2.457031 0.847656 -2.601562 C 0.847656 -2.820312 0.925781 -3.015625 1.085938 -3.183594 C 1.242188 -3.351562 1.46875 -3.4375 1.757812 -3.4375 C 1.882812 -3.4375 2.023438 -3.414062 2.183594 -3.367188 C 2.34375 -3.320312 2.453125 -3.296875 2.511719 -3.296875 C 2.574219 -3.296875 2.621094 -3.308594 2.652344 -3.335938 C 2.679688 -3.359375 2.707031 -3.394531 2.734375 -3.4375 L 2.84375 -3.4375 L 2.6875 -2.359375 L 2.5625 -2.359375 C 2.53125 -2.605469 2.480469 -2.789062 2.414062 -2.914062 C 2.292969 -3.144531 2.101562 -3.257812 1.839844 -3.257812 C 1.726562 -3.257812 1.628906 -3.222656 1.539062 -3.152344 C 1.453125 -3.082031 1.410156 -2.980469 1.410156 -2.847656 C 1.410156 -2.746094 1.429688 -2.652344 1.46875 -2.574219 C 1.507812 -2.496094 1.597656 -2.355469 1.734375 -2.15625 L 2.003906 -1.769531 C 2.144531 -1.570312 2.242188 -1.40625 2.300781 -1.28125 C 2.359375 -1.152344 2.386719 -1.015625 2.386719 -0.871094 C 2.386719 -0.597656 2.273438 -0.367188 2.039062 -0.179688 C 1.804688 0.0078125 1.527344 0.101562 1.207031 0.101562 C 1.105469 0.101562 0.957031 0.0820312 0.761719 0.0390625 C 0.570312 -0.00390625 0.460938 -0.0273438 0.429688 -0.0273438 C 0.378906 -0.0273438 0.339844 -0.015625 0.316406 0.0078125 C 0.292969 0.03125 0.269531 0.0664062 0.25 0.109375 L 0.125 0.109375 Z "/>
</g>
<g id="glyph-0-11">
<path d="M 1.3125 -4.554688 C 1.328125 -4.609375 1.339844 -4.660156 1.347656 -4.703125 C 1.351562 -4.746094 1.355469 -4.785156 1.355469 -4.816406 C 1.355469 -4.847656 1.347656 -4.878906 1.332031 -4.910156 C 1.316406 -4.941406 1.277344 -4.96875 1.214844 -4.984375 C 1.199219 -4.992188 1.167969 -4.996094 1.125 -4.996094 C 1.082031 -5 0.992188 -5.003906 0.855469 -5.011719 L 0.855469 -5.144531 C 0.9375 -5.15625 1.023438 -5.167969 1.117188 -5.179688 C 1.214844 -5.191406 1.339844 -5.207031 1.503906 -5.234375 C 1.523438 -5.234375 1.597656 -5.253906 1.734375 -5.28125 C 1.871094 -5.3125 1.964844 -5.328125 2.023438 -5.328125 C 2.035156 -5.328125 2.046875 -5.324219 2.058594 -5.3125 C 2.070312 -5.300781 2.078125 -5.289062 2.078125 -5.265625 L 2.070312 -5.21875 L 1.3125 -2.347656 C 1.542969 -2.671875 1.734375 -2.90625 1.894531 -3.054688 C 2.171875 -3.308594 2.460938 -3.4375 2.757812 -3.4375 C 3.035156 -3.4375 3.257812 -3.34375 3.425781 -3.160156 C 3.59375 -2.976562 3.679688 -2.75 3.679688 -2.480469 C 3.679688 -1.851562 3.40625 -1.257812 2.855469 -0.710938 C 2.320312 -0.175781 1.769531 0.0898438 1.195312 0.0898438 C 0.933594 0.0898438 0.695312 0.03125 0.476562 -0.0820312 C 0.261719 -0.195312 0.160156 -0.289062 0.179688 -0.355469 Z M 1.234375 -0.0859375 C 1.683594 -0.0859375 2.101562 -0.378906 2.492188 -0.960938 C 2.84375 -1.484375 3.019531 -1.964844 3.019531 -2.398438 C 3.019531 -2.597656 2.96875 -2.753906 2.863281 -2.871094 C 2.757812 -2.988281 2.628906 -3.050781 2.472656 -3.050781 C 2.070312 -3.050781 1.683594 -2.691406 1.316406 -1.972656 C 1 -1.347656 0.839844 -0.828125 0.839844 -0.414062 C 0.839844 -0.316406 0.871094 -0.234375 0.933594 -0.175781 C 0.996094 -0.117188 1.097656 -0.0859375 1.234375 -0.0859375 Z "/>
</g>
<g id="glyph-0-12">
<path d="M 5.039062 -2.972656 C 5.039062 -2.761719 4.9375 -2.480469 4.730469 -2.128906 C 4.617188 -1.933594 4.457031 -1.699219 4.25 -1.421875 C 4.035156 -1.132812 3.816406 -0.851562 3.59375 -0.574219 C 3.234375 -0.132812 3.023438 0.0859375 2.960938 0.0859375 C 2.933594 0.0859375 2.917969 0.0742188 2.910156 0.0546875 C 2.902344 0.03125 2.890625 -0.046875 2.878906 -0.179688 L 2.65625 -2.542969 L 1.078125 0.0390625 C 1.070312 0.0546875 1.0625 0.0625 1.050781 0.0664062 C 1.039062 0.0742188 1.027344 0.0742188 1.015625 0.0742188 L 0.960938 0.0664062 L 0.953125 0.03125 L 0.90625 -0.90625 C 0.898438 -1.117188 0.882812 -1.335938 0.863281 -1.558594 C 0.84375 -1.78125 0.828125 -1.976562 0.808594 -2.140625 C 0.753906 -2.601562 0.699219 -2.882812 0.640625 -2.984375 C 0.582031 -3.089844 0.472656 -3.140625 0.3125 -3.140625 C 0.28125 -3.140625 0.25 -3.140625 0.21875 -3.136719 C 0.1875 -3.136719 0.160156 -3.132812 0.125 -3.128906 L 0.125 -3.238281 C 0.230469 -3.257812 0.328125 -3.277344 0.421875 -3.296875 C 0.519531 -3.316406 0.621094 -3.339844 0.738281 -3.363281 L 1.09375 -3.457031 C 1.179688 -3.457031 1.265625 -3.09375 1.355469 -2.375 C 1.402344 -1.980469 1.445312 -1.527344 1.484375 -1.023438 L 2.976562 -3.382812 C 2.988281 -3.402344 3 -3.421875 3.015625 -3.433594 C 3.03125 -3.449219 3.046875 -3.457031 3.070312 -3.457031 C 3.09375 -3.457031 3.105469 -3.449219 3.113281 -3.433594 C 3.121094 -3.417969 3.125 -3.394531 3.128906 -3.363281 L 3.382812 -0.617188 C 3.402344 -0.640625 3.542969 -0.820312 3.804688 -1.15625 C 4.066406 -1.492188 4.207031 -1.667969 4.21875 -1.691406 C 4.410156 -1.964844 4.535156 -2.175781 4.597656 -2.324219 C 4.640625 -2.421875 4.660156 -2.515625 4.660156 -2.605469 C 4.660156 -2.640625 4.65625 -2.675781 4.644531 -2.707031 C 4.632812 -2.738281 4.609375 -2.769531 4.570312 -2.804688 L 4.453125 -2.917969 C 4.421875 -2.949219 4.394531 -2.984375 4.367188 -3.023438 C 4.34375 -3.0625 4.332031 -3.109375 4.332031 -3.164062 C 4.332031 -3.226562 4.355469 -3.292969 4.398438 -3.355469 C 4.445312 -3.421875 4.523438 -3.457031 4.640625 -3.457031 C 4.734375 -3.457031 4.824219 -3.417969 4.910156 -3.34375 C 4.996094 -3.269531 5.039062 -3.144531 5.039062 -2.972656 Z "/>
</g>
<g id="glyph-0-13">
<path d="M -0.214844 -0.257812 C -0.214844 -0.355469 -0.1875 -0.425781 -0.125 -0.46875 C -0.0625 -0.511719 -0.00390625 -0.53125 0.0625 -0.53125 C 0.0898438 -0.53125 0.121094 -0.527344 0.152344 -0.519531 C 0.183594 -0.511719 0.214844 -0.496094 0.25 -0.476562 L 0.382812 -0.402344 C 0.402344 -0.390625 0.417969 -0.386719 0.433594 -0.382812 C 0.449219 -0.378906 0.46875 -0.375 0.488281 -0.375 C 0.550781 -0.375 0.601562 -0.390625 0.636719 -0.421875 C 0.671875 -0.453125 0.757812 -0.566406 0.898438 -0.753906 C 0.992188 -0.878906 1.207031 -1.183594 1.539062 -1.664062 C 1.539062 -1.679688 1.507812 -1.816406 1.449219 -2.070312 C 1.390625 -2.324219 1.339844 -2.542969 1.292969 -2.71875 C 1.242188 -2.898438 1.199219 -3.015625 1.160156 -3.074219 C 1.125 -3.132812 1.054688 -3.160156 0.949219 -3.160156 C 0.914062 -3.160156 0.84375 -3.148438 0.742188 -3.121094 C 0.675781 -3.105469 0.605469 -3.089844 0.527344 -3.070312 L 0.492188 -3.1875 L 0.914062 -3.332031 C 1.023438 -3.367188 1.125 -3.398438 1.21875 -3.421875 C 1.308594 -3.445312 1.386719 -3.457031 1.453125 -3.457031 C 1.558594 -3.457031 1.640625 -3.425781 1.695312 -3.359375 C 1.773438 -3.257812 1.84375 -3.058594 1.898438 -2.761719 L 1.976562 -2.328125 C 2.207031 -2.675781 2.382812 -2.921875 2.511719 -3.066406 C 2.625 -3.195312 2.730469 -3.289062 2.832031 -3.351562 C 2.933594 -3.414062 3.03125 -3.449219 3.121094 -3.449219 C 3.207031 -3.449219 3.277344 -3.433594 3.332031 -3.410156 C 3.425781 -3.363281 3.476562 -3.277344 3.476562 -3.152344 C 3.476562 -3.066406 3.449219 -3 3.402344 -2.949219 C 3.355469 -2.902344 3.292969 -2.878906 3.214844 -2.878906 C 3.1875 -2.878906 3.160156 -2.882812 3.136719 -2.886719 C 3.113281 -2.894531 3.085938 -2.902344 3.058594 -2.917969 L 2.957031 -2.957031 C 2.929688 -2.96875 2.902344 -2.980469 2.878906 -2.992188 C 2.851562 -3 2.835938 -3.003906 2.820312 -3.003906 C 2.707031 -3.003906 2.550781 -2.855469 2.347656 -2.5625 C 2.144531 -2.265625 2.042969 -2.097656 2.042969 -2.050781 C 2.042969 -2.011719 2.066406 -1.890625 2.113281 -1.679688 C 2.160156 -1.472656 2.210938 -1.25 2.265625 -1.019531 C 2.316406 -0.796875 2.359375 -0.644531 2.394531 -0.5625 C 2.453125 -0.425781 2.519531 -0.355469 2.59375 -0.355469 C 2.660156 -0.355469 2.730469 -0.394531 2.800781 -0.472656 C 2.871094 -0.546875 2.980469 -0.683594 3.121094 -0.882812 L 3.226562 -0.816406 C 3.117188 -0.617188 3.007812 -0.449219 2.890625 -0.3125 C 2.667969 -0.046875 2.460938 0.0820312 2.257812 0.0820312 C 2.132812 0.0820312 2.03125 0.0234375 1.960938 -0.0976562 C 1.917969 -0.167969 1.875 -0.285156 1.835938 -0.449219 L 1.597656 -1.386719 L 0.820312 -0.363281 C 0.667969 -0.1875 0.550781 -0.0664062 0.46875 -0.0078125 C 0.386719 0.0546875 0.285156 0.0820312 0.164062 0.0820312 C 0 0.0820312 -0.109375 0.03125 -0.167969 -0.0664062 C -0.199219 -0.121094 -0.214844 -0.183594 -0.214844 -0.257812 Z "/>
</g>
<g id="glyph-0-14">
<path d="M -0.597656 1.476562 C -0.445312 1.476562 -0.328125 1.449219 -0.253906 1.390625 C -0.175781 1.335938 -0.117188 1.238281 -0.0820312 1.101562 L 0.882812 -2.601562 C 0.90625 -2.691406 0.921875 -2.757812 0.929688 -2.796875 C 0.933594 -2.839844 0.9375 -2.871094 0.9375 -2.894531 C 0.9375 -2.976562 0.90625 -3.039062 0.84375 -3.078125 C 0.78125 -3.121094 0.691406 -3.140625 0.574219 -3.140625 C 0.546875 -3.140625 0.523438 -3.140625 0.5 -3.136719 C 0.476562 -3.136719 0.453125 -3.132812 0.429688 -3.128906 L 0.421875 -3.257812 L 1.628906 -3.4375 C 1.644531 -3.441406 1.65625 -3.429688 1.664062 -3.410156 C 1.65625 -3.375 1.648438 -3.347656 1.644531 -3.332031 L 1.4375 -2.589844 C 1.609375 -2.816406 1.769531 -2.992188 1.914062 -3.109375 C 2.175781 -3.328125 2.445312 -3.4375 2.726562 -3.4375 C 3.011719 -3.4375 3.238281 -3.351562 3.402344 -3.183594 C 3.566406 -3.015625 3.644531 -2.757812 3.644531 -2.410156 C 3.644531 -1.816406 3.394531 -1.25 2.890625 -0.710938 C 2.390625 -0.175781 1.875 0.0898438 1.335938 0.0898438 C 1.230469 0.0898438 1.140625 0.0820312 1.066406 0.0625 C 0.992188 0.0429688 0.902344 0.0078125 0.796875 -0.0429688 L 0.746094 0.183594 C 0.683594 0.445312 0.640625 0.628906 0.613281 0.742188 C 0.546875 1.03125 0.515625 1.195312 0.515625 1.234375 C 0.515625 1.339844 0.550781 1.402344 0.613281 1.433594 C 0.679688 1.460938 0.8125 1.476562 1.007812 1.488281 L 1.007812 1.601562 L -0.597656 1.601562 Z M 2.945312 -2.425781 C 2.945312 -2.589844 2.925781 -2.722656 2.886719 -2.816406 C 2.808594 -3.003906 2.660156 -3.09375 2.445312 -3.09375 C 2.261719 -3.09375 2.058594 -3.007812 1.84375 -2.832031 C 1.625 -2.65625 1.453125 -2.375 1.324219 -1.980469 C 1.222656 -1.664062 1.128906 -1.328125 1.039062 -0.980469 C 0.953125 -0.632812 0.90625 -0.429688 0.90625 -0.367188 C 0.90625 -0.269531 0.949219 -0.195312 1.027344 -0.148438 C 1.105469 -0.101562 1.203125 -0.078125 1.3125 -0.078125 C 1.757812 -0.078125 2.152344 -0.363281 2.492188 -0.925781 C 2.796875 -1.429688 2.945312 -1.929688 2.945312 -2.425781 Z "/>
</g>
<g id="glyph-0-15">
<path d="M 2.894531 -3.4375 C 2.996094 -3.4375 3.085938 -3.410156 3.164062 -3.351562 C 3.285156 -3.269531 3.34375 -3.132812 3.34375 -2.9375 C 3.34375 -2.851562 3.324219 -2.734375 3.28125 -2.582031 C 3.242188 -2.429688 3.164062 -2.179688 3.058594 -1.84375 C 3.339844 -2.273438 3.578125 -2.601562 3.78125 -2.824219 C 4.148438 -3.234375 4.472656 -3.4375 4.753906 -3.4375 C 4.875 -3.4375 4.980469 -3.394531 5.082031 -3.316406 C 5.179688 -3.234375 5.230469 -3.105469 5.230469 -2.925781 C 5.230469 -2.867188 5.207031 -2.734375 5.15625 -2.519531 L 4.597656 -0.449219 C 4.589844 -0.414062 4.59375 -0.382812 4.609375 -0.347656 C 4.628906 -0.3125 4.660156 -0.296875 4.707031 -0.296875 C 4.753906 -0.296875 4.792969 -0.308594 4.828125 -0.332031 C 4.863281 -0.355469 4.90625 -0.390625 4.960938 -0.445312 C 5.011719 -0.496094 5.050781 -0.539062 5.082031 -0.578125 C 5.113281 -0.617188 5.207031 -0.726562 5.355469 -0.90625 L 5.472656 -0.816406 L 5.433594 -0.761719 C 5.25 -0.503906 5.070312 -0.300781 4.882812 -0.144531 C 4.699219 0.0078125 4.515625 0.0820312 4.335938 0.0820312 C 4.253906 0.0820312 4.1875 0.0625 4.132812 0.0234375 C 4.046875 -0.0429688 4.003906 -0.152344 4.003906 -0.308594 C 4.003906 -0.347656 4.003906 -0.386719 4.011719 -0.429688 C 4.019531 -0.472656 4.027344 -0.519531 4.039062 -0.574219 L 4.585938 -2.699219 C 4.59375 -2.730469 4.601562 -2.753906 4.605469 -2.777344 C 4.609375 -2.796875 4.609375 -2.816406 4.609375 -2.835938 C 4.609375 -2.898438 4.59375 -2.945312 4.5625 -2.976562 C 4.53125 -3.011719 4.492188 -3.027344 4.441406 -3.027344 C 4.273438 -3.027344 4.074219 -2.898438 3.851562 -2.644531 C 3.625 -2.386719 3.429688 -2.128906 3.261719 -1.863281 C 3.109375 -1.597656 3.003906 -1.371094 2.941406 -1.191406 C 2.878906 -1.011719 2.765625 -0.613281 2.601562 0 L 2.011719 0 L 2.734375 -2.699219 C 2.738281 -2.722656 2.742188 -2.746094 2.746094 -2.765625 C 2.75 -2.789062 2.753906 -2.808594 2.753906 -2.832031 C 2.753906 -2.894531 2.738281 -2.941406 2.714844 -2.976562 C 2.6875 -3.011719 2.644531 -3.027344 2.582031 -3.027344 C 2.421875 -3.027344 2.226562 -2.894531 1.992188 -2.628906 C 1.757812 -2.363281 1.566406 -2.113281 1.417969 -1.882812 C 1.269531 -1.65625 1.128906 -1.359375 0.996094 -0.984375 C 0.914062 -0.757812 0.804688 -0.429688 0.671875 0 L 0.0859375 0 L 0.828125 -2.699219 C 0.835938 -2.726562 0.839844 -2.753906 0.847656 -2.78125 C 0.851562 -2.804688 0.855469 -2.832031 0.855469 -2.859375 C 0.855469 -2.957031 0.820312 -3.019531 0.75 -3.039062 C 0.683594 -3.058594 0.550781 -3.066406 0.355469 -3.058594 L 0.355469 -3.1875 C 0.613281 -3.226562 1.027344 -3.308594 1.597656 -3.4375 L 1.628906 -3.410156 L 1.183594 -1.84375 C 1.464844 -2.257812 1.730469 -2.605469 1.980469 -2.882812 C 2.324219 -3.253906 2.628906 -3.4375 2.894531 -3.4375 Z "/>
</g>
<g id="glyph-0-16">
<path d="M 1.671875 -4.273438 C 1.566406 -4.273438 1.476562 -4.3125 1.40625 -4.394531 C 1.332031 -4.476562 1.296875 -4.570312 1.296875 -4.6875 C 1.296875 -4.804688 1.332031 -4.902344 1.40625 -4.980469 C 1.480469 -5.0625 1.566406 -5.105469 1.671875 -5.105469 C 1.773438 -5.105469 1.863281 -5.0625 1.9375 -4.980469 C 2.011719 -4.902344 2.050781 -4.800781 2.050781 -4.6875 C 2.050781 -4.570312 2.011719 -4.472656 1.9375 -4.390625 C 1.863281 -4.3125 1.773438 -4.273438 1.671875 -4.273438 Z M 1.761719 -3.441406 C 1.777344 -3.433594 1.785156 -3.421875 1.78125 -3.410156 L 1.015625 -0.699219 C 0.980469 -0.554688 0.960938 -0.46875 0.960938 -0.441406 C 0.960938 -0.402344 0.96875 -0.371094 0.984375 -0.339844 C 0.996094 -0.3125 1.027344 -0.296875 1.078125 -0.296875 C 1.164062 -0.296875 1.277344 -0.371094 1.421875 -0.519531 C 1.503906 -0.609375 1.605469 -0.734375 1.726562 -0.898438 L 1.828125 -0.816406 L 1.789062 -0.761719 C 1.597656 -0.496094 1.441406 -0.304688 1.316406 -0.191406 C 1.121094 -0.0078125 0.933594 0.0820312 0.75 0.0820312 C 0.640625 0.0820312 0.546875 0.0390625 0.476562 -0.0546875 C 0.40625 -0.144531 0.367188 -0.25 0.367188 -0.375 C 0.367188 -0.449219 0.375 -0.511719 0.382812 -0.566406 C 0.394531 -0.621094 0.414062 -0.703125 0.441406 -0.808594 L 0.972656 -2.761719 C 0.980469 -2.792969 0.984375 -2.820312 0.992188 -2.84375 C 0.996094 -2.871094 1 -2.894531 1 -2.921875 C 1 -3.011719 0.964844 -3.066406 0.898438 -3.089844 C 0.832031 -3.109375 0.699219 -3.121094 0.5 -3.121094 L 0.5 -3.246094 C 0.710938 -3.273438 0.863281 -3.292969 0.957031 -3.304688 C 1.046875 -3.320312 1.140625 -3.335938 1.234375 -3.347656 C 1.355469 -3.367188 1.472656 -3.390625 1.578125 -3.417969 C 1.6875 -3.441406 1.75 -3.449219 1.761719 -3.441406 Z "/>
</g>
</g>
<image id="source-7" x="0" y="0" width="0" height="0"/>
<mask id="mask-0">
<use xlink:href="#source-7"/>
</mask>
</defs>
<g fill="rgb(100%, 100%, 100%)" fill-opacity="1">
<use xlink:href="#glyph-0-0" x="30" y="25.833008"/>
<use xlink:href="#glyph-0-1" x="36" y="25.833008"/>
<use xlink:href="#glyph-0-2" x="39" y="25.833008"/>
<use xlink:href="#glyph-0-3" x="41" y="25.833008"/>
<use xlink:href="#glyph-0-1" x="45" y="25.833008"/>
<use xlink:href="#glyph-0-1" x="48" y="25.833008"/>
<use xlink:href="#glyph-0-4" x="51" y="25.833008"/>
<use xlink:href="#glyph-0-2" x="55" y="25.833008"/>
<use xlink:href="#glyph-0-5" x="57" y="25.833008"/>
<use xlink:href="#glyph-0-2" x="61" y="25.833008"/>
<use xlink:href="#glyph-0-6" x="63" y="25.833008"/>
<use xlink:href="#glyph-0-7" x="66" y="25.833008"/>
<use xlink:href="#glyph-0-3" x="70" y="25.833008"/>
<use xlink:href="#glyph-0-8" x="74" y="25.833008"/>
<use xlink:href="#glyph-0-9" x="76" y="25.833008"/>
<use xlink:href="#glyph-0-5" x="79" y="25.833008"/>
<use xlink:href="#glyph-0-10" x="83" y="25.833008"/>
<use xlink:href="#glyph-0-8" x="86" y="25.833008"/>
<use xlink:href="#glyph-0-2" x="88" y="25.833008"/>
<use xlink:href="#glyph-0-11" x="90" y="25.833008"/>
<use xlink:href="#glyph-0-1" x="94" y="25.833008"/>
<use xlink:href="#glyph-0-8" x="97" y="25.833008"/>
<use xlink:href="#glyph-0-12" x="99" y="25.833008"/>
<use xlink:href="#glyph-0-1" x="104" y="25.833008"/>
<use xlink:href="#glyph-0-1" x="107" y="25.833008"/>
<use xlink:href="#glyph-0-3" x="110" y="25.833008"/>
<use xlink:href="#glyph-0-2" x="114" y="25.833008"/>
<use xlink:href="#glyph-0-1" x="116" y="25.833008"/>
<use xlink:href="#glyph-0-13" x="119" y="25.833008"/>
<use xlink:href="#glyph-0-14" x="122" y="25.833008"/>
<use xlink:href="#glyph-0-1" x="126" y="25.833008"/>
<use xlink:href="#glyph-0-6" x="129" y="25.833008"/>
<use xlink:href="#glyph-0-8" x="132" y="25.833008"/>
<use xlink:href="#glyph-0-1" x="134" y="25.833008"/>
<use xlink:href="#glyph-0-4" x="137" y="25.833008"/>
<use xlink:href="#glyph-0-2" x="141" y="25.833008"/>
<use xlink:href="#glyph-0-5" x="143" y="25.833008"/>
<use xlink:href="#glyph-0-3" x="147" y="25.833008"/>
<use xlink:href="#glyph-0-4" x="151" y="25.833008"/>
<use xlink:href="#glyph-0-2" x="155" y="25.833008"/>
<use xlink:href="#glyph-0-6" x="157" y="25.833008"/>
<use xlink:href="#glyph-0-7" x="160" y="25.833008"/>
<use xlink:href="#glyph-0-15" x="164" y="25.833008"/>
<use xlink:href="#glyph-0-14" x="170" y="25.833008"/>
<use xlink:href="#glyph-0-1" x="174" y="25.833008"/>
<use xlink:href="#glyph-0-8" x="177" y="25.833008"/>
<use xlink:href="#glyph-0-16" x="179" y="25.833008"/>
<use xlink:href="#glyph-0-8" x="181" y="25.833008"/>
<use xlink:href="#glyph-0-7" x="183" y="25.833008"/>
<use xlink:href="#glyph-0-9" x="187" y="25.833008"/>
</g>
</svg>
