<?xml version="1.0" encoding="UTF-8"?>
<svg xmlns="http://www.w3.org/2000/svg" xmlns:xlink="http://www.w3.org/1999/xlink" width="854" height="480" viewBox="0 0 854 480">
<defs>
<g>
<g id="glyph-0-0">
<path d="M 0.984375 -2.234375 C 0.988281 -2.230469 0.992188 -2.226562 0.992188 -2.222656 C 0.992188 -2.222656 0.996094 -2.214844 0.996094 -2.207031 L 0.996094 -0.246094 C 0.996094 -0.164062 1.015625 -0.109375 1.0625 -0.0859375 C 1.105469 -0.0625 1.1875 -0.0507812 1.308594 -0.046875 L 1.308594 0 L 0.390625 0 L 0.390625 -0.046875 C 0.523438 -0.0546875 0.609375 -0.0742188 0.648438 -0.101562 C 0.6875 -0.132812 0.710938 -0.195312 0.710938 -0.292969 L 0.710938 -1.800781 C 0.710938 -1.851562 0.703125 -1.890625 0.691406 -1.917969 C 0.675781 -1.945312 0.648438 -1.960938 0.605469 -1.960938 C 0.578125 -1.960938 0.539062 -1.953125 0.496094 -1.9375 C 0.449219 -1.921875 0.410156 -1.902344 0.371094 -1.886719 L 0.371094 -1.933594 L 0.964844 -2.234375 Z "/>
</g>
</g>
</defs>
<g fill="rgb(100%, 100%, 100%)" fill-opacity="1">
<use xlink:href="#glyph-0-0" x="30" y="22.5"/>
<use xlink:href="#glyph-0-0" x="32" y="22.5"/>
<use xlink:href="#glyph-0-0" x="34" y="22.5"/>
</g>
</svg>
