<?xml version="1.0" encoding="UTF-8"?>
<svg xmlns="http://www.w3.org/2000/svg" xmlns:xlink="http://www.w3.org/1999/xlink" width="854" height="480" viewBox="0 0 854 480">
<defs>
<g>
<g id="glyph-0-0">
<path d="M 0.0820312 -0.0898438 C 0.277344 -0.109375 0.398438 -0.148438 0.445312 -0.199219 C 0.496094 -0.25 0.519531 -0.382812 0.519531 -0.601562 L 0.519531 -2.765625 C 0.519531 -2.945312 0.492188 -3.0625 0.4375 -3.117188 C 0.382812 -3.167969 0.265625 -3.203125 0.0820312 -3.214844 L 0.0820312 -3.308594 L 1.46875 -3.308594 L 1.46875 -3.214844 C 1.285156 -3.203125 1.167969 -3.167969 1.109375 -3.117188 C 1.054688 -3.0625 1.027344 -2.945312 1.027344 -2.765625 L 1.027344 -1.792969 L 2.542969 -1.792969 L 2.542969 -2.765625 C 2.542969 -2.945312 2.515625 -3.0625 2.464844 -3.117188 C 2.410156 -3.167969 2.289062 -3.203125 2.105469 -3.214844 L 2.105469 -3.308594 L 3.492188 -3.308594 L 3.492188 -3.214844 C 3.308594 -3.203125 3.191406 -3.167969 3.136719 -3.117188 C 3.082031 -3.0625 3.054688 -2.945312 3.054688 -2.765625 L 3.054688 -0.542969 C 3.054688 -0.359375 3.082031 -0.242188 3.136719 -0.191406 C 3.191406 -0.140625 3.308594 -0.105469 3.492188 -0.0898438 L 3.492188 0 L 2.105469 0 L 2.105469 -0.0898438 C 2.300781 -0.109375 2.425781 -0.144531 2.472656 -0.199219 C 2.519531 -0.25 2.542969 -0.382812 2.542969 -0.601562 L 2.542969 -1.570312 L 1.027344 -1.570312 L 1.027344 -0.542969 C 1.027344 -0.359375 1.054688 -0.242188 1.109375 -0.191406 C 1.164062 -0.140625 1.285156 -0.105469 1.46875 -0.0898438 L 1.46875 0 L 0.0820312 0 Z "/>
</g>
<g id="glyph-0-1">
<path d="M 0.0546875 -0.0898438 C 0.253906 -0.109375 0.375 -0.148438 0.421875 -0.199219 C 0.472656 -0.25 0.496094 -0.382812 0.496094 -0.601562 L 0.496094 -2.765625 C 0.496094 -2.945312 0.46875 -3.058594 0.414062 -3.113281 C 0.359375 -3.167969 0.242188 -3.203125 0.0546875 -3.214844 L 0.0546875 -3.308594 L 2.71875 -3.308594 L 2.738281 -2.589844 L 2.597656 -2.589844 C 2.5625 -2.820312 2.5 -2.964844 2.40625 -3.027344 C 2.3125 -3.085938 2.125 -3.117188 1.84375 -3.117188 L 1.164062 -3.117188 C 1.097656 -3.117188 1.050781 -3.105469 1.035156 -3.082031 C 1.015625 -3.058594 1.007812 -3.015625 1.007812 -2.949219 L 1.007812 -1.832031 L 1.726562 -1.832031 C 1.941406 -1.832031 2.078125 -1.867188 2.136719 -1.929688 C 2.195312 -1.992188 2.242188 -2.121094 2.277344 -2.3125 L 2.394531 -2.3125 L 2.394531 -1.15625 L 2.277344 -1.15625 C 2.242188 -1.351562 2.191406 -1.480469 2.132812 -1.542969 C 2.074219 -1.605469 1.941406 -1.636719 1.726562 -1.636719 L 1.007812 -1.636719 L 1.007812 -0.542969 C 1.007812 -0.359375 1.035156 -0.242188 1.089844 -0.1875 C 1.144531 -0.136719 1.269531 -0.105469 1.457031 -0.0898438 L 1.457031 0 L 0.0546875 0 Z "/>
</g>
</g>
</defs>
<g fill="rgb(46.27451%, 86.666667%, 75.294118%)" fill-opacity="1">
<use xlink:href="#glyph-0-0" x="30" y="23.75"/>
<use xlink:href="#glyph-0-1" x="34" y="23.75"/>
</g>
</svg>
